<svg xmlns="http://www.w3.org/2000/svg" viewBox="0 0 187.61 167.5"><defs><style>.cls-1{fill:#f97316;}</style></defs><g id="Layer_2" data-name="Layer 2"><g id="Layer_1-2" data-name="Layer 1"><path class="cls-1" d="M55.15,110c-1.82,0-3.64.08-5.45,0-3.21-.17-5.11-2-5.55-5.21-.35-2.54-.63-5.1-1.12-7.61a3.15,3.15,0,0,0-1.48-1.87c-1.17-.66-2.67-.79-3.74-1.56-2.23-1.59-3.93-.92-5.74.65-1.53,1.34-3.17,2.54-4.81,3.75a5.24,5.24,0,0,1-7-.28q-4.07-3.8-7.88-7.84c-2.13-2.27-2.13-5-.19-7.63,1.48-2,3-4,4.57-5.92a2.08,2.08,0,0,0,.23-2.8,11.78,11.78,0,0,1-1.57-3.74c-.44-2.38-1.88-3.12-4.06-3.26A57.91,57.91,0,0,1,5,65.92C1.89,65.36.19,63.51.09,60.36q-.18-5.45,0-10.89c.1-3,2.16-5,5.35-5.46,2.33-.31,4.64-.73,7-.87A2.43,2.43,0,0,0,15,40.92a5.49,5.49,0,0,1,.82-2.1c2.19-3,1.39-5.42-1-7.82a25.09,25.09,0,0,1-3-4A5.4,5.4,0,0,1,12.35,20c2.52-2.61,5.08-5.18,7.72-7.68a5.39,5.39,0,0,1,7.24-.42c2.14,1.55,4.27,3.13,6.3,4.83a2.06,2.06,0,0,0,2.79.2,9.92,9.92,0,0,1,3.1-1.35c3-.54,4-2.36,4-5.18a37.69,37.69,0,0,1,.56-5c.5-3.55,2.51-5.34,6.11-5.4,3.18,0,6.35,0,9.53,0,3.88,0,5.94,1.92,6.42,5.85.29,2.4.53,4.81,1,7.18a2.87,2.87,0,0,0,1.38,1.69c1.19.63,2.67.79,3.75,1.54,2.31,1.6,4,1,5.87-.79a38.3,38.3,0,0,1,4.67-3.59,5.58,5.58,0,0,1,7.45.51c2.34,2.25,4.65,4.55,6.89,6.9,3,3.14,3,5.53.32,9-1.34,1.73-2.62,3.52-4,5.19a2.09,2.09,0,0,0-.26,2.82A7.72,7.72,0,0,1,94.33,39c.55,3.38,2.66,4.48,5.81,4.5a34.45,34.45,0,0,1,4.73.55c3.09.45,5,2.35,5.12,5.41.14,3.7.15,7.42,0,11.12-.13,3.24-2.2,5.06-5.81,5.52-2.32.29-4.67.49-7,1a4,4,0,0,0-2,1.63c-.46.65-.46,1.64-.92,2.29-2.25,3.13-1.49,5.73,1.1,8.22a24.44,24.44,0,0,1,2.66,3.38,5.51,5.51,0,0,1-.51,7.61q-3.67,3.85-7.53,7.54a5.52,5.52,0,0,1-7.45.31c-2-1.55-4.14-3-6.09-4.71a2.05,2.05,0,0,0-2.82-.24,3.19,3.19,0,0,1-1.21.6c-5.3.69-6,4.48-6.32,8.85-.39,6-2.1,7.47-8.08,7.47ZM86,16.89c-2.8,2.13-5.46,4.37-8.36,6.24a5.19,5.19,0,0,1-3.91.41,82.69,82.69,0,0,1-9.8-4,4.49,4.49,0,0,1-2.28-2.66,76.28,76.28,0,0,1-1.32-9.18c-.14-1.4-.69-1.79-2-1.75C56.18,6,54,6,51.79,5.91c-1.26,0-1.9.31-2,1.73-.29,2.93-.87,5.83-1.16,8.76-.19,2-1.29,2.83-3,3.44A48.62,48.62,0,0,0,37.63,23c-2.45,1.37-4.28,1.18-6.35-.59-2.33-2-4.85-3.75-7-5.37l-7.36,7c2.09,2.75,4.1,5.49,6.21,8.13,1.21,1.52,1.14,2.9.34,4.6-1.35,2.85-2.58,5.77-3.64,8.74-.62,1.76-1.47,2.82-3.44,3C13,48.94,9.59,49.49,6,50c0,2.91.06,5.62,0,8.33-.05,1.51.59,1.9,2,2,2.78.25,5.54.76,8.32,1,2,.2,3,1.29,3.62,3.15a82.5,82.5,0,0,0,3.51,8.55c.83,1.76,1,3.21-.3,4.81-2.12,2.64-4.11,5.37-6,7.86l7,7.39C26.86,91,29.57,89,32.24,86.88a3.85,3.85,0,0,1,4.58-.33,87.59,87.59,0,0,0,9,3.72,3.69,3.69,0,0,1,2.83,3.36c.39,3.48.92,7,1.37,10.22H60.19c.45-3.49.93-6.77,1.27-10.07.21-2,1.24-3,3.15-3.59a37.48,37.48,0,0,0,7.73-3.13c2.5-1.49,4.36-1.32,6.5.54,2.3,2,4.83,3.76,7,5.4l7.38-7c-2.06-2.69-4-5.35-6.1-7.94a4,4,0,0,1-.4-5,45.84,45.84,0,0,0,3.47-8.32c.64-2.14,1.71-3.21,3.87-3.44,2.78-.29,5.56-.62,8.31-1.07.62-.11,1.62-.8,1.64-1.25.15-3,.07-6,.07-9-3.61-.51-6.88-1.06-10.17-1.38-2-.21-3-1.19-3.64-3.08A65.65,65.65,0,0,0,86.72,37c-.94-1.87-1-3.3.34-4.95,2.14-2.62,4.11-5.36,6.15-8.05Z"/><path class="cls-1" d="M119.58,97c-2.07-2.58-3.74-4.81-5.56-6.91a3.06,3.06,0,0,1-.19-4.27,40.74,40.74,0,0,1,10.65-10.7,3.46,3.46,0,0,1,4.73.17c2,1.71,4.07,3.34,6.51,5.33.3-2.73.62-5.07.81-7.41.28-3.39.72-4.32,4.08-4.52,4.71-.27,9.46,0,14.19.15,2,.08,3,1.39,3.13,3.46.16,2.63.5,5.24.81,8.34l6.32-5.1c2.14-1.72,3.36-1.92,5.39-.07a133.18,133.18,0,0,1,9.74,9.71c2.06,2.31,1.81,3.29-.21,5.76-1.56,1.9-3.14,3.79-5,6,3,.3,5.54.62,8.07.78s3.58,1.28,3.95,3.75a42.32,42.32,0,0,1,0,14c-.52,2.84-1.27,3.51-4.19,3.75l-7.79.68c2,2.46,3.66,4.66,5.46,6.74a3.29,3.29,0,0,1,.18,4.51,41.94,41.94,0,0,1-10.48,10.57c-1.73,1.21-3.25,1.29-4.89-.14-2-1.73-4.07-3.35-6.5-5.33-.33,3-.72,5.67-.86,8.32-.12,2.09-1.12,3.45-3.1,3.51-5,.15-10.07.17-15.09,0-2.08-.06-3.1-1.5-3.2-3.68-.12-2.55-.46-5.09-.76-8.18-2.09,1.7-3.86,3.13-5.61,4.58-2.93,2.44-3.79,2.69-6.65.19a99.71,99.71,0,0,1-9.2-9.3c-2-2.29-1.79-3.18.13-5.54l5.06-6.22c-2.77-.26-5.14-.5-7.51-.69-3.28-.27-4.3-.93-4.46-4.19-.23-4.65-.11-9.32.06-14A3.26,3.26,0,0,1,111,97.77C113.68,97.57,116.37,97.3,119.58,97Zm55.11-9-6.36-7.35c-2.91,2.36-5.2,4.32-7.61,6.14-2.64,2-7.33-.06-7.71-3.32a65.71,65.71,0,0,1-.54-6.55c0-1.81-.51-2.84-2.54-2.76-2.46.09-4.93,0-7.5,0-.33,3.18-.67,5.95-.87,8.72-.13,1.74-.65,3-2.41,3.7-2,.78-3.82,1.75-5.84-.12s-4.39-3.65-7.22-6l-6.48,7c1,1.43,1.91,2.66,2.85,3.83s2,2.24,3,3.42c2.14,2.69.32,7.36-3.09,7.86a68.71,68.71,0,0,1-7.43.74c-1.4.06-1.91.61-1.91,1.88,0,2.26-.09,4.53.08,6.78a2.15,2.15,0,0,0,1.47,1.38,62,62,0,0,0,7.43.81c2.12.09,3,1.31,3.73,3,.84,1.9,1.11,3.51-.42,5.21-1.91,2.12-3.66,4.39-5.53,6.67l6.56,7.16c2.7-2.22,5-3.88,7-5.8s3.67-1,5.62-.26a3.89,3.89,0,0,1,2.66,3.79c.19,2.83.55,5.66.87,8.8h7.89c1.55,0,2.05-.81,2.11-2.27.09-2.18.39-4.36.51-6.55a3.72,3.72,0,0,1,2.49-3.67c2-.75,3.8-1.77,5.83.16s4.4,3.66,7,5.8l6.78-6.81c-2.22-2.73-4-5.12-6-7.37-1.54-1.75-.75-3.32-.07-5s1.47-2.69,3.38-2.83c3-.2,6-.61,9.17-1,0-3,.07-5.75-.07-8.52,0-.48-1-1.21-1.56-1.3-2.39-.35-4.82-.39-7.21-.75a5.07,5.07,0,0,1-3.27-8.32C171.14,92.22,172.94,90.08,174.69,88Z"/><path class="cls-1" d="M109,148.58c-2-1.63-3.95-3.24-5.9-4.87s-2.27-3.2-1.14-4.67,2.91-1.54,4.92.1q5.63,4.58,11.19,9.22c2.06,1.72,2.22,2.79.86,5.08q-3.6,6-7.24,12c-1.17,1.93-2.76,2.5-4.32,1.63s-1.93-2.67-.75-4.68c1.36-2.33,2.75-4.64,4.42-7.43l-5.93.27c-12.18.54-23.95-1.23-35-6.49a58.09,58.09,0,0,1-26.22-24.18,25.68,25.68,0,0,1-1.3-2.63c-.88-2.1-.43-3.71,1.21-4.45s3.18,0,4.16,1.95A51.13,51.13,0,0,0,69,141.55c10.39,5.92,21.69,8,33.53,7.84,2.08,0,4.17,0,6.25,0Z"/><path class="cls-1" d="M114.58,19.92c1.65,2.14,3.33,4.26,4.92,6.44,1.38,1.88,1.28,3.5-.15,4.6s-3.18.74-4.65-1.15q-4.53-5.8-9-11.64c-1.49-1.94-1.43-3.22.24-5q4.83-5.1,9.71-10.16c1.7-1.75,3.4-1.95,4.75-.65s1.2,3-.45,4.76c-1.85,2-3.72,3.92-5.75,6.07,4.27.9,8.31,1.6,12.27,2.63,15.56,4,28.67,11.87,38.17,25.12a53.34,53.34,0,0,1,8.9,19.42c.52,2.27-.27,3.93-2,4.37s-3.1-.67-3.73-3c-5.55-20.43-19.4-32.66-39-39.07-4.55-1.49-9.31-2.33-14-3.46Z"/><path class="cls-1" d="M55,85.85A30.89,30.89,0,1,1,85.91,55.08,30.83,30.83,0,0,1,55,85.85ZM80,55.1A24.91,24.91,0,1,0,55,79.92,24.86,24.86,0,0,0,80,55.1Z"/><path class="cls-1" d="M147.12,125.2c-9,0-16.5-7.47-16.58-16.1a16.8,16.8,0,0,1,16.89-17.46,17,17,0,0,1,16.68,16.86A16.79,16.79,0,0,1,147.12,125.2Zm-10.65-16.82a10.81,10.81,0,0,0,10.87,10.93,10.92,10.92,0,0,0,10.82-11c0-5.75-5.11-10.69-11.19-10.76C141.45,97.43,136.45,102.61,136.47,108.38Z"/></g></g></svg>
