<svg fill="none" height="380" viewBox="0 0 793 380" width="793" xmlns="http://www.w3.org/2000/svg" xmlns:xlink="http://www.w3.org/1999/xlink"><filter id="a" color-interpolation-filters="sRGB" filterUnits="userSpaceOnUse" height="1183.48" width="1669.62" x=".632812" y=".921387"><feFlood flood-opacity="0" result="BackgroundImageFix"/><feBlend in="SourceGraphic" in2="BackgroundImageFix" mode="normal" result="shape"/><feGaussianBlur result="effect1_foregroundBlur_80_88835" stdDeviation="100"/></filter><radialGradient id="b" cx="0" cy="0" gradientTransform="matrix(479.49997684 -57.00003147 79.59719932 669.59358175 350.949 334.5)" gradientUnits="userSpaceOnUse" r="1"><stop offset="0" stop-color="#8d5fff"/><stop offset=".46875" stop-color="#e359ff"/><stop offset="1" stop-color="#fb3d5d"/></radialGradient><g filter="url(#a)" opacity=".8"><path d="m382.82 327.653c-101.577-7.414-163.782-59.94-182.188-85.276 10.316 116.349 39.005 371.463 71.235 461.128 40.288 112.08 97.353 195.763 259.691 241.535s223.75 89.29 301.092-101.324c77.342-190.61 649.78-130.707 637.41-169.799-12.37-39.091-95.05-180.078-158.32-271.123-63.27-91.044-202.79-158.55-273.18-190.307-70.393-31.756-208.571 7.436-322.938 50.489s-205.83 73.945-332.802 64.677z" fill="url(#b)"/></g></svg>