<svg fill="none" height="283" viewBox="0 0 661 283" width="661" xmlns="http://www.w3.org/2000/svg" xmlns:xlink="http://www.w3.org/1999/xlink"><filter id="a" color-interpolation-filters="sRGB" filterUnits="userSpaceOnUse" height="1680.2" width="1190.41" x=".117188" y="-1398.2"><feFlood flood-opacity="0" result="BackgroundImageFix"/><feBlend in="SourceGraphic" in2="BackgroundImageFix" mode="normal" result="shape"/><feGaussianBlur result="effect1_foregroundBlur_80_88836" stdDeviation="100"/></filter><radialGradient id="b" cx="0" cy="0" gradientTransform="matrix(-69.15485758 -477.89835431 667.35700987 -96.57070077 349.534 -70.6024)" gradientUnits="userSpaceOnUse" r="1"><stop offset="0" stop-color="#453489"/><stop offset=".71875" stop-color="#e359ff"/><stop offset="1" stop-color="#fb3d5d"/></radialGradient><g filter="url(#a)" opacity=".8"><path d="m341.88-102.289c-4.834 101.732504-55.763 165.2512-80.623 184.2939 116.049-13.2662 370.353-48.4226 459.17-82.918657 111.022-43.120043 193.228-102.291243 234.864-265.739243 41.636-163.447 83.579-225.944-108.934-298.422-192.512-72.478-147.161-646.245-185.926-632.895-38.765 13.36-177.608 99.6-267.016 165.15-89.409 65.562-153.351 206.757-183.311 277.93s12.729 208.311 58.671 321.548 79.146 203.887 73.105 331.053z" fill="url(#b)"/></g></svg>