<svg xmlns="http://www.w3.org/2000/svg" viewBox="0 0 162.94 163.18"><defs><style>.cls-1{fill:#f97316;}</style></defs><g id="Layer_2" data-name="Layer 2"><g id="Layer_1-2" data-name="Layer 1"><path class="cls-1" d="M162.94,81.55A81.47,81.47,0,1,1,81.22,0,81.43,81.43,0,0,1,162.94,81.55ZM89,46.76c-5.2,2.89-10.26,5.21-14.72,8.37a21.23,21.23,0,0,0-7.1,8c-5.58,12.4-10.52,25.08-15.9,37.57-1.3,3-1.36,5.08,1.34,7.39,3.53,3,6.49,6.7,10,9.73a10.58,10.58,0,0,0,6,2.64c10,.29,20.08.26,30.11.12a10.07,10.07,0,0,0,5.37-1.73c11.39-8,11.35-8.1,6-21.07-.41-1-.8-2-1.21-3Zm3.34-2C101,65.9,109.49,86.43,118.2,107.53l17.7-14.2C127.36,73.56,119,54.26,110.49,34.5Zm-66.12,33C39.25,70.37,52.1,63.12,64.93,55.81a4.48,4.48,0,0,0,1.78-1.93c3.86-9.17,7.65-18.37,11.51-27.69C53.55,23.89,24.27,52.9,26.19,77.75Zm11.09-36.9L24.81,28.41C11.61,42.58,4.6,59.4,3.74,79.29H21.4A61.83,61.83,0,0,1,37.28,40.85ZM138.51,28.79l-13.12,11.8a61.35,61.35,0,0,1,16.13,38.83h17.74Q157.88,49.61,138.51,28.79ZM3.68,83.53c.92,20,7.83,36.77,20.88,50.93L37,121.86c-9.56-10.68-14.59-23.59-15.6-38.33Zm79.58,75.78c20.08-.81,36.92-7.75,51.35-21.07l-12.44-12.59c-11,10.13-24.26,15-38.91,16.09ZM83.6,21.43c15,1.07,27.85,6.22,38.71,16.06L135,25.13C120.35,11.78,103.66,4.44,83.6,4ZM141.45,84a61.63,61.63,0,0,1-16.07,38.57l12.2,12.59c13.69-14.48,20.63-31.29,21.66-51.16ZM28.17,138.09c14.22,13.18,30.92,20.29,50.8,21.17V141.53A61.34,61.34,0,0,1,40.43,125.4ZM79.48,3.88C59.3,4.56,42.54,11.72,28.18,25L40.61,37.58c11-10.16,24.16-15.06,38.87-16.23ZM47,101.42c5.5-13.27,10.87-26.2,16.82-40.53L27.28,81.58Zm89.49-16.48c1.62-18.84-4.86-34.22-19.77-45.87ZM39.55,118.88c1.75-4.06,3.27-7.3,4.49-10.64.37-1,.4-2.76-.23-3.41C38.23,99,32.46,93.31,25.67,86.51,27,99.66,31.63,109.41,39.55,118.88ZM90.87,41.21l15.89-9,0-1.53L85.66,24.93l-.83,1.49Zm-15.51,96c-8.11-11.87-18.31-15.94-28.59-11.47C55.31,132.05,64.45,136.33,75.36,137.21Zm6.79-.6,14.46-11.67H70.72Zm-.72-108.1L71.7,52l15.76-8.95Zm7.85,108a46.78,46.78,0,0,0,26.76-11C103.38,121.06,96.84,130,89.28,136.55ZM57.72,120.39c-3.21-3.59-6.39-7.17-9.92-11.13-1.62,4-3,7.36-4.53,11.13Zm76.9-19-1.4-1-8.64,7c-5.6,4.53-5.6,4.53-.66,11.79Zm-18,12.32-8.2,6.78h10.82Z"/></g></g></svg>
