<svg xmlns="http://www.w3.org/2000/svg" viewBox="0 0 179.47 166.87"><defs><style>.cls-1{fill:#f97316;}</style></defs><g id="Layer_2" data-name="Layer 2"><g id="Layer_1-2" data-name="Layer 1"><path class="cls-1" d="M172.37,47.25c-8.53-2.33-11.42-8.42-15.7-14.14C135.25,4.52,96.4-7.27,62.64,4.56,27.75,16.78,6,49.13,7,87.3c.13,5.15,1.13,9.82-3.59,14.72-6.94,7.2-2.76,17.78,7.36,19.78,4.63.92,6.76,3.17,9.1,6.69,16.5,24.73,39.8,37.37,67.26,38.38,50.19.27,87.5-38.25,86.28-86.8-.15-5.63-.72-10.76,3.44-16.07C181.92,57.57,179.17,49.11,172.37,47.25Zm-17.29-4.37c3.77,6.22,1.61,9.8-5.7,10.36-15,1.17-14.89,1.13-20-13.26a118.8,118.8,0,0,0-6.28-14.69c-2.27-4.42-5.19-8.5-9-14.56C132.81,17.48,145.93,27.77,155.08,42.88Zm-54.19-33c10,5.26,24.84,29.52,24.57,40.25-.08,3-1.45,3.24-3.6,3.25-4,0-8.07,0-12.11,0-15.66.5-15.66.5-15.69-14.74,0-8.09.14-16.17,0-24.25C93.89,8.9,95.14,6.85,100.89,9.88Zm-22,.25c6-3.67,8.43-2.33,8,4.82-.34,5.36-.07,10.76-.08,16.15a72.19,72.19,0,0,0,.06,9.07c1.17,9.3-.42,15.88-12.13,14.13-1.94-.29-4.35.23-4.29,3,.06,3.15,2.64,4,5,3.46,12.08-2.67,12,4.74,11.4,13.1-.33,4.35,0,8.75-.05,13.13,0,12.6-5.93,18.51-18.47,18.56-17.42.06-17.51.06-17.87-18.11-.17-8-1.87-16,8.16-21.2C64.84,63,64.2,55.39,60.1,49.34c-1.4-2.08-4.79-3.16-3.45-6.59C61.55,30.16,66.62,17.7,78.94,10.13ZM44.4,57.22c-.25-3.46,2.39-5.62,5.69-5.87,3.5-.26,5.52,1.93,6,5.15.17,3.88-1.55,6.2-5.06,6.62C46.84,63.61,44.66,60.79,44.4,57.22ZM66.1,10.69C58.22,22.08,55.17,33.13,49.21,41.75S34.07,59,19.75,53C28.43,33.22,43,19.71,66.1,10.69ZM13.53,115.52c-3.55.39-5.81-1.54-6.25-5-.52-4.15,2.09-6.34,5.75-6.72s4.86,2.8,6.14,5.23C18.56,112.62,17,115.15,13.53,115.52Zm.54-42.6C15.08,60.77,18.12,59,33.5,61,42,62.08,44.34,68.28,44,76.23c-.37,9.41-.56,18.86,1.61,29.51-8.29-1.66-15,1.36-22.41-3C10.34,95.06,13.17,83.72,14.07,72.92Zm11.46,51.89c-1.85-2.89-3.58-5.43-1.53-9.2s5.12-3.26,8.45-3.75c10.28-1.52,15.82,1.72,17.75,12.75,2,11.27,8.27,21.06,16.48,32C47.89,149.62,35,139.45,25.53,124.81Zm60.23,33.93c-4.66,1.82-9.06-3-12.69-6.45-10.08-9.58-14.84-22-18.36-35-.42-1.57-1.1-3.22.46-4.58,2.62-2.29,20.53.48,23.41,2.58,9.06,6.61,9.44,15.8,8.73,25.55a41.65,41.65,0,0,1,0,6C86.65,150.94,90,157.08,85.76,158.74Zm3-43.21C85.85,115,84,113,84.2,109.42s2.08-5.86,5.59-5.73c3.9.15,6.35,3,5.92,6.64C95.36,113.32,93,115.73,88.79,115.53Zm13,41c-4.83,3.24-7.85,3.58-7.55-3.85.31-7.73.07-15.49-.13-23.23-.1-4.17.39-7.55,4.14-10.54,5.54-4.43,6.76-11.66,1.78-16-7.91-6.86-5.81-15-5.89-23-.18-19.15,0-19.15,18.4-19.27,16.27-.09,16.28-.09,16.69,16,.06,2.35,0,4.71,0,7.07H129c0,3.7-.25,7.42,0,11.1.65,7.83-1.72,12.19-10.58,10.83-2.81-.44-7.18-.62-6.94,3.48s4.74,3.07,7.41,2.78c6.91-.75,8,1.9,6,7.93C120.06,133.89,114.91,147.7,101.78,156.55Zm47.13-23.93c-8.6,10-18.67,18-32.36,21.37a110.21,110.21,0,0,0,15.93-37c.87-3.78,2.46-5.34,6-5,7.16.8,17.75-3.6,20.61,2.17C161.71,119.53,153.7,127.05,148.91,132.62Zm17.6-38.41c-1.73,12.48-8.59,12.14-15.41,11.3-3.93,0-6-.24-7.95,0-7.72,1.11-9-2.6-7.62-9.23,1.71-8.28,1.14-16.68.37-25-.32-3.47-2.94-8.92.57-10,5.43-1.68,12.22-2.86,17.5.6C165.62,69.52,168.44,80.21,166.51,94.21Zm-.63-30.94c-3.79-.2-5.48-2.48-5.37-5.87.11-3.58,2.46-5.29,6-5.21,3.79.09,5.13,2.53,5.55,5.86C171.25,61.26,169.66,63.47,165.88,63.27Z"/></g></g></svg>
