<svg xmlns="http://www.w3.org/2000/svg" viewBox="0 0 195.7 166.3"><defs><style>.cls-1{fill:#f97316;}.cls-2{fill:#db80b5;}</style></defs><g id="Layer_2" data-name="Layer 2"><g id="Layer_1-2" data-name="Layer 1"><path class="cls-1" d="M164.24,74.2A64.33,64.33,0,0,0,178,58.88c1.27-1.88,3.24-4,1.77-6.51-1.29-2.17-3.87-1.28-5.91-1.33a59.61,59.61,0,0,0-14.19,1.53c-4.63,1-8.89.1-10.05-5.3-1.24-5.8,1.73-9.18,7.36-10.11,8.46-1.41,16.93-2.9,25.54-.64,11,2.91,15.57,10.9,11.88,21.77-4.55,13.39-14.3,23-24.32,32.21-3.21,3-4.92,5.71-5,10.26-1,51.42-57.65,81.51-99.71,56.7-3.12-1.84-5.92-1.9-9.43-.78-11.36,3.63-22.86,6.81-35,6.39-17.54-.6-24.82-12.6-17-28.26a67.5,67.5,0,0,1,11.72-16.18c3.45-3.65,7.47-4.46,11.31-.76s3.37,7.4.08,11.4A135.27,135.27,0,0,0,17.76,142c-2.62,4-1.05,6.34,3.62,6.38,6.72.06,13.18-1.5,19.52-3.63,1.67-1.89,4.05-2.39,6.28-3.14C88,128,124.33,106.54,157.2,79A34.27,34.27,0,0,1,164.24,74.2Z"/><path class="cls-1" d="M31.9,104.11l-17.48,10c7.07-18.92,13.72-36.65,20.35-54.4,4.49-12,9.31-24,13.26-36.18,1.75-5.39,4.54-6.47,9.35-5.33,1.62.38,3.34,1,4.92.79,4.57-.63,8.8,3.81,14-3.12S92,5.65,100.06.62c2.85-1.77,3.15.68,4,2.1,3.65,5.86,7.6,11.57,10.74,17.7,2.68,5.24,6.2,7.62,12.17,8,8.72.51,17.37,2,27.11,3.27-5.73,4.76-11.62,7.54-17.38,10.5-9.56,1.82-19.33,0-28.9,1.71-6.21.07-12.49.76-18.48-1.65.13-2.17,1.47-2,2-1.76-6.93,2.35-15.16.36-23.17,1.7-6.44,5-8.83,12.73-12.36,19.5C49.3,74.05,42.19,86.12,36.25,98.79,35.27,100.88,34.56,103.33,31.9,104.11Z"/><path class="cls-1" d="M30.9,103.11c9.72-18.41,19.39-36.85,29.22-55.2,1.52-2.83,2.25-6.34,5.53-8,7.45-.47,14.92-1.27,22.33.47,6.36,1.48,12.8,1,19.23.93,7.13-.93,14.29-.19,21.43-.4,1.45,0,2.92,0,3.21,2l-1.64,1.46c-19.3,1.17-38.5-1.25-57.77-1.43-4.87,0-7.6,1.23-10,5.84-9.65,18.8-19.85,37.32-29.85,55.94Z"/><path class="cls-1" d="M12.17,50c2.33,7.36,2.33,7.36,12.56,12.46-8.08-.3-11.68,3.39-12,11.08C11.31,66.4,8.46,61.45,0,61.92,6.89,60.61,12.17,58.12,12.17,50Z"/><path class="cls-1" d="M172.09,107.93c5.69-2,12.42-2.31,11.09-11.82,1.46,7.27,5.19,10.86,12.07,11.28-5.43,2.07-11,3.44-11.74,10.8C182,112.19,178.91,108.1,172.09,107.93Z"/><path class="cls-2" d="M155.89,65.51c-6.45-8.86-12.74-18-24.68-20.18a5.1,5.1,0,0,0-3.85-1.61c-18.57.68-37-2.07-55.59-1.6-4.61.12-7.39,2.39-9.54,6.27C54.16,63,46.48,77.74,38.8,92.51c-2.18,4.19-4.78,8.26-5.18,13.17.16,11.17,3.83,21.36,8.74,31.2,3.6,6.09,8.25,2.08,11.91.67,36.37-13.94,69.95-32.79,99.95-57.79,2.39-2,4.72-4.06,5.39-7.34C158.38,70.11,157.42,67.6,155.89,65.51ZM111.94,96.45c-4,2.08-8,4-12.07,5.92a4.64,4.64,0,0,1-2.24-1.57,5.56,5.56,0,0,1,0,3.29c-2,1.2-3.93,2.7-6.11,3.52-3,1.1-5.92,5.47-8.66,3.15a21.29,21.29,0,0,1-7.12-13.21c-.07-.49.78-1.11,1.2-1.68a5,5,0,0,1,1.72-2.32,10.42,10.42,0,0,1-3.48.79C69.3,91.83,65.68,85,66.58,81.11c1.14-4.94,8.14-7.63,14.26-8.22A11,11,0,0,1,83.14,75a12.7,12.7,0,0,1-.59-3.8c1.89-1.37,3.61-3.12,5.69-4,3.07-1.37,6.68-5.91,9.13-3.41,3.6,3.66,7.88,8.17,6.45,14.57a9.19,9.19,0,0,1-2.16,2.45c1.13-.31,2.37-.6,3.71-.86,5.48,2.62,5.79,8.8,8.9,13.07C115.8,95.13,113.21,95.78,111.94,96.45Z"/><path class="cls-2" d="M87.66,83.34l-.4-.62c.24.48.48,1,.75,1.41A3.21,3.21,0,0,1,86.6,89c2.52-.81,4.07.13,5.94,3.2-.9-2.81-.62-5.1.89-7l-.52.33C90.76,87,88.79,85.13,87.66,83.34Z"/><path class="cls-2" d="M93.43,85.21c2.64-1.63,5.81-2.46,8.23-4.41C97.67,81.91,94.94,83.35,93.43,85.21Z"/><path class="cls-2" d="M92.54,92.17a28.63,28.63,0,0,0,4.63,8.07l.46.56c-.69-2.24-2.61-4-3.67-6.07C93.46,93.75,93,92.9,92.54,92.17Z"/><path class="cls-2" d="M83.14,75a31.89,31.89,0,0,0,4.12,7.69C86,80.11,85,77.29,83.14,75Z"/><path class="cls-2" d="M86.6,89a22.7,22.7,0,0,0-5,2.71,32.08,32.08,0,0,0-2.87,1.87C81.5,92.4,83.87,90.3,86.6,89Z"/><path class="cls-2" d="M75.21,94.34c3.59-3.42,11-3.75,11.61-8.25.52-4.08-3.8-8.78-6-13.2l1.71-1.66a10.2,10.2,0,0,1,.89,1.1c7.3,12.7,7.3,12.71,20.38,6l1.55,1.59c-3.59,3.71-11.45,3.87-11.91,8.72C93,93,97.54,97.78,99.87,102.37l-2.21,1.72c-.19-.42-.37-.86-.59-1.26-7.14-13-7.14-13-20.1-7Z"/><path class="cls-1" d="M89,41.38l-22.33-.47c8.94-2.61,19.83.07,28.89.36C94,41.49,90.55,41.15,89,41.38Z"/></g></g></svg>
