<svg xmlns="http://www.w3.org/2000/svg" viewBox="0 0 157.84 188.64"><defs><style>.cls-1{fill:#f97316;}</style></defs><g id="Layer_2" data-name="Layer 2"><g id="Layer_1-2" data-name="Layer 1"><path class="cls-1" d="M114.47,80.17c-.33,5.65-1,11.31-.88,16.94a13.53,13.53,0,0,1-5.55,12c-4.52,3.46-6.22,8-6.66,13.65-1.46,18.91-3.4,37.78-5.08,56.67-.71,7.92-1.88,9.13-9.78,9.19-5.5,0-11,.06-16.48,0-6.41-.12-7.62-1.09-8.25-7.35-1.94-19.21-4-38.4-5.41-57.65-.46-6.29-2.26-11.21-7.22-14.94-3.79-2.85-4.95-6.64-5.09-11.28-.36-11.8-1.41-23.59-1.61-35.4-.24-14.35,4.56-19.17,19-19.49,11.65-.26,23.31-.29,35,0,13,.29,18.37,5.81,18.7,18.78.16,6.32,0,12.64,0,18.95Z"/><path class="cls-1" d="M157.35,99.59c-.17,3.65-.53,7.31-.46,11,.12,7.41-1.17,14.12-7.83,18.66-1.73,1.18-1.64,3.13-1.8,4.95q-2.1,23.6-4.25,47.2c-.52,5.69-1.83,6.86-7.48,6.89-4.66,0-9.33-.11-14,0-3.5.11-5.43-1.5-5.65-4.85-1.28-19.87-5.38-39.53-4-59.6.23-3.31,1.18-5.85,3.72-7.67,6.93-5,8.71-11.83,8.52-19.92-.16-6.47.71-13,.89-19.44.07-2.37.79-3.21,3.17-3.14,5.65.17,11.32-.06,17,.26,7.61.44,11,3.8,12.27,11.23C158.29,90,157.58,94.78,157.35,99.59Z"/><path class="cls-1" d="M.09,102.15c0-5.83-.24-11.67.06-17.48.32-6.19,3.83-10,10-10.51,6.62-.51,13.31-.22,20-.43,2.61-.08,2.44,1.6,2.54,3.26.49,8.31,1.22,16.62,1.38,24.93.09,4.24.79,8,4.39,10.42,7.86,5.38,8.57,13.42,8,21.7-1.22,16.1-2.83,32.17-4.27,48.25-.37,4.15-2.28,6.28-6.78,6-4.65-.28-9.33-.19-14,0-4.19.14-6-1.73-6.37-5.84-1.35-15.42-3.05-30.82-4.18-46.26a14.09,14.09,0,0,0-5.54-10.5c-3.11-2.55-4.17-5.62-4.09-9.57.1-4.65-.37-9.31-.59-14Z"/><path class="cls-1" d="M97.41,18.83A18.62,18.62,0,1,1,79.42,0,18.4,18.4,0,0,1,97.41,18.83Z"/><path class="cls-1" d="M125.76,63.1c-.33-6-.65-12-3.69-17.34-1.21-2.12-.5-2.79,1.24-3.73a14.6,14.6,0,0,1,20.32,18.52,15.21,15.21,0,0,1-14.11,9.18C124.05,69.66,125.94,65.9,125.76,63.1Z"/><path class="cls-1" d="M14.65,54.76c.17-9.85,10-16.85,19.13-13.65,1.48.52,3.44.67,1.95,3.26-3.8,6.62-4,13.94-3.57,21.27.21,3.45-.93,4.33-4.22,3.92C20.19,68.59,14.52,62.43,14.65,54.76Z"/></g></g></svg>
