<svg xmlns="http://www.w3.org/2000/svg" viewBox="0 0 164.27 140.69"><defs><style>.cls-1{fill:#f97316;}</style></defs><g id="Layer_2" data-name="Layer 2"><g id="Layer_1-2" data-name="Layer 1"><path class="cls-1" d="M85.45,2.37a46.84,46.84,0,0,1-4.6,2.74,53.48,53.48,0,0,0-19.8,15.52C45.46,40.39,40.62,62.43,50.17,86c8.23,20.37,23.51,33.72,45.35,38.68,3.88.89,7.93,1.06,11.9,1.56l3.69.48c-1.1,1.21-1.79,2.45-2.85,3a79.77,79.77,0,0,1-11.11,5.61c-9.56,3.51-19.4,5.63-29.71,5.25C33.17,139.39,4.54,113.54.58,79.48c-3.27-28.14,7.29-50.8,30.06-67.11C45.27,1.89,62.28-1.7,80.32.73c1.64.22,3.26.68,4.88,1Z"/><path class="cls-1" d="M113.29,79.42a38.22,38.22,0,0,1-3.81-1.93q-4.37-2.89-8.63-6a1.74,1.74,0,0,0-2.37.06c-2.5,1.85-5,3.72-7.54,5.49-1.29.89-2.72,1.59-4.08,2.38l-.41-.38c.15-.56.29-1.12.45-1.67,1.15-3.83,2.26-7.68,3.48-11.49a1.84,1.84,0,0,0-.78-2.48q-4.57-3.21-9-6.65a14.39,14.39,0,0,1-2.08-2.49l.33-.5c.58,0,1.15-.07,1.73-.07,4.06,0,8.12-.07,12.18,0a1.63,1.63,0,0,0,1.89-1.36c.76-2.73,1.53-5.46,2.46-8.14.58-1.71,1.44-3.32,2.18-5l.58-.05a13.87,13.87,0,0,1,1.55,2.56c.84,2.47,1.38,5,2.27,7.49,1.9,5.2,1.12,4.38,6.2,4.56,3.09.12,6.19.27,9.28.45a8.9,8.9,0,0,1,1.71.51c-1.42,1.19-2.59,2.27-3.85,3.22-2.23,1.66-4.47,3.31-6.8,4.84a2.1,2.1,0,0,0-.88,2.8c1.23,4,2.36,8,3.52,12C113,78,113.09,78.52,113.29,79.42Z"/><path class="cls-1" d="M158.79,84.83a15.52,15.52,0,0,1-5.73,4.65A1.78,1.78,0,0,0,152,92c.77,2.65,1.35,5.36,2.12,8.48-1.12-.58-1.94-.94-2.7-1.4s-1.56-1.06-2.33-1.61c-3.5-2.51-3.49-2.5-7,.12-1.32,1-2.68,1.88-4,2.82l-.56-.31c.37-1.62.62-3.28,1.12-4.86,1.31-4.14,1.34-4.11-2.09-6.8-1.38-1.08-2.66-2.28-4-3.43l.17-.65c2,0,3.9,0,5.85,0,3.77,0,3.74-.07,4.9-3.6.58-1.76,1.29-3.47,1.94-5.2l.47,0c.93,2.36,1.92,4.7,2.76,7.09a2,2,0,0,0,2.26,1.6c2.59-.11,5.19,0,7.79,0Z"/><path class="cls-1" d="M161.08,48a12.58,12.58,0,0,1-2.07-.77,18.57,18.57,0,0,1-2.69-2c-1.24-1.13-2.3-.85-3.51.06S150,47.11,148.61,48l-.35-.37c.52-1.68,1-3.38,1.59-5a2,2,0,0,0-.73-2.61c-.84-.63-1.76-1.17-2.56-1.84s-1.26-1.28-2.1-2.16c1.92,0,3.4-.06,4.87,0,1.72.07,2.86-.53,3.34-2.29.29-1.06.8-2.06,1.38-3.52a38.69,38.69,0,0,1,2.13,3.57,3.11,3.11,0,0,0,3.62,2.09,13.35,13.35,0,0,1,4.47.32c-1.45,1.12-2.87,2.31-4.38,3.35a1.65,1.65,0,0,0-.7,2.22C159.83,43.64,160.36,45.56,161.08,48Z"/></g></g></svg>
