<svg xmlns="http://www.w3.org/2000/svg" viewBox="0 0 187 140.86"><defs><style>.cls-1{fill:#f97316;}</style></defs><g id="Layer_2" data-name="Layer 2"><g id="Layer_1-2" data-name="Layer 1"><path class="cls-1" d="M187,21.82v5.82a60.83,60.83,0,0,1-10.76,23.9,133.12,133.12,0,0,1-56.54,44C112,98.76,104,101.19,96.1,104a205.46,205.46,0,0,0,67.69-16.48c-.26,1.1-.36,1.62-.51,2.12A70.43,70.43,0,0,1,49.6,123.8a6.52,6.52,0,0,0-6.2-1.66,134,134,0,0,1-21.72,2.58c-11.58.17-17.63-4.38-21.68-14.8V104.1c.71-2.34,1.32-4.73,2.14-7,3.58-10,9.92-18.15,17.29-25.51a22.82,22.82,0,0,0,6.76-13C34.62,12.1,82-12.64,124.93,6.53a8.77,8.77,0,0,0,5.39.29c9.78-2.61,19.6-4.47,29.81-4.16C174.63,3.09,182.14,8.29,187,21.82Zm-25.91,23c5.09-10.27,4.86-20.58-.68-26.87C152.53,9,142,8.25,131,9.07A75.5,75.5,0,0,1,161.09,44.86ZM25,71.53l-1.46-.24c-2,5.21-4.66,10.26-5.81,15.65-2.94,13.8,7.92,21.94,18.42,20.88A71.05,71.05,0,0,1,25,71.53Z"/></g></g></svg>
