<svg xmlns="http://www.w3.org/2000/svg" viewBox="0 0 161.47 161.44"><defs><style>.cls-1{fill:#f97316;}</style></defs><g id="Layer_2" data-name="Layer 2"><g id="Layer_1-2" data-name="Layer 1"><path class="cls-1" d="M41.63,82.25a39.08,39.08,0,1,1,40.69,37.9A39,39,0,0,1,41.63,82.25Z"/><path class="cls-1" d="M0,80.64l36.12-7.41v15L0,80.87Z"/><path class="cls-1" d="M61.74,39.2,49.2,47.58l-14-34.34.16-.1Z"/><path class="cls-1" d="M80.8,0c2.47,12,4.94,24.06,7.42,36.18h-15Q76.89,18.05,80.6,0Z"/><path class="cls-1" d="M37.14,66.76,8.28,43.56l.08-.18L44,53.35Z"/><path class="cls-1" d="M123.48,12.27,110.35,46.86,97.62,38.78l25.71-26.66Z"/><path class="cls-1" d="M122.85,65.76l-7.21-13.24L151,41.73l.11.19Z"/><path class="cls-1" d="M123.18,94,152,117.21l-.09.19-35.63-10C118.61,102.91,120.88,98.51,123.18,94Z"/><path class="cls-1" d="M9.11,118.94,37.47,95c2.41,4.43,4.77,8.78,7.21,13.25L9.2,119.09Z"/><path class="cls-1" d="M36.89,148.39c4.35-11.45,8.69-22.9,13.07-34.45L62.71,122,37.13,148.53Z"/><path class="cls-1" d="M124.88,147.62l-26.3-26,12.54-8.37,13.94,34.27Z"/><path class="cls-1" d="M73.17,125.3h15q-3.7,18.13-7.4,36.12l-.24,0Z"/><path class="cls-1" d="M125.29,73.24l36.16,7.41,0,.2-36.18,7.43Z"/></g></g></svg>
