<svg xmlns="http://www.w3.org/2000/svg" xmlns:xlink="http://www.w3.org/1999/xlink" viewBox="0.05 0.37 158.99 123.45">
    <defs>
        <path id="2lrfp83sfa" d="M18.123.379L.093 47.869l5.818 4.266L45.089 19.56l-.029.024c-3.155-3.838-6.812-7.367-10.956-10.488-5.002-3.768-10.378-6.69-15.957-8.79L18.14.306c-.026 0-.017.073-.017.073z"/>
        <path id="jk0nbt5n9c" d="M.134 8.711c0 4.8 3.892 8.693 8.693 8.693 4.8 0 8.692-3.892 8.692-8.693 0-4.8-3.892-8.692-8.692-8.692C4.027.019.134 3.91.134 8.71"/>
        <path id="5mpmq260ze" d="M.134 8.711c0 4.8 3.892 8.693 8.693 8.693 4.8 0 8.692-3.892 8.692-8.693 0-4.8-3.892-8.692-8.692-8.692C4.027.019.134 3.91.134 8.71"/>
        <path id="yafdzop0ag" d="M.134 8.711c0 4.8 3.892 8.693 8.693 8.693 4.8 0 8.692-3.892 8.692-8.693 0-4.8-3.892-8.692-8.692-8.692C4.027.019.134 3.91.134 8.71z"/>
        <path id="de7zzgawgi" d="M.134 8.711c0 4.8 3.892 8.693 8.693 8.693 4.8 0 8.692-3.892 8.692-8.693 0-4.8-3.892-8.692-8.692-8.692C4.027.019.134 3.91.134 8.71"/>
        <path id="7qugpi9jck" d="M.134 8.711c0 4.8 3.892 8.693 8.693 8.693 4.8 0 8.692-3.892 8.692-8.693 0-4.8-3.892-8.692-8.692-8.692C4.027.019.134 3.91.134 8.71"/>
    </defs>
    <g fill="none" fill-rule="evenodd">
        <g>
            <g>
                <g>
                    <path stroke="#FFF" stroke-width=".765" d="M67.084 76.532c-5.861-4.247-7.17-12.44-2.924-18.302 4.247-5.861 12.44-7.17 18.302-2.924 5.861 4.246 7.17 12.44 2.924 18.302-4.246 5.861-12.44 7.17-18.302 2.924zm16.592-35.04c-4.025-1.472-8.472-1.966-13.004-1.242-14.176 2.265-23.833 15.593-21.568 29.77 2.265 14.176 15.594 23.833 29.77 21.568 14.177-2.265 23.833-15.594 21.568-29.77-.741-4.64-2.667-8.794-5.42-12.205L83.677 41.49z" transform="translate(-645 -405) translate(563 307) translate(83 99)"/>
                    <g transform="translate(-645 -405) translate(563 307) translate(83 99) translate(79.177 5.737)">
                        <mask id="mik7rfl6lb" fill="#fff">
                            <use xlink:href="#2lrfp83sfa"/>
                        </mask>
                        <path fill="#FFF" fill-rule="nonzero" d="M18.441 23.236c-.512 0-.86-.093-.898-.104-.305-.085-.483-.401-.399-.707.086-.305.402-.483.708-.398.062.017 1.488.369 2.692-.831l-1.6-1.122c-.26-.182-.324-.54-.142-.8.183-.259.54-.321.8-.14l1.612 1.13c.699-1.468-.136-2.843-.177-2.907-.167-.268-.088-.622.18-.791.265-.168.618-.092.788.175.059.09 1.293 2.083.158 4.188l1.885 1.32c1.704-1.864 3.857-1.294 3.953-1.267.305.085.483.402.398.707-.085.305-.402.483-.706.398-.062-.016-1.488-.37-2.693.83l1.461 1.024c.26.182.323.54.141.8-.112.159-.29.244-.47.244-.114 0-.229-.033-.329-.104L24.33 23.85c-.7 1.47.137 2.844.177 2.909.168.267.089.621-.178.79-.096.06-.202.09-.308.09-.188 0-.373-.094-.482-.265-.058-.09-1.294-2.083-.157-4.189l-1.886-1.32c-1.04 1.14-2.25 1.372-3.055 1.372zm28.302 3.707C42.306 14.983 26.699 6.39 22.59 4.295 18.483 2.199 14.73 2.24 14.73 2.24L-2.195 30.705s10.917-2.512 17.94 4.82c7.022 7.33 5.849 8.831 5.849 8.831l25.149-17.413z" mask="url(#mik7rfl6lb)"/>
                    </g>
                    <g>
                        <path stroke="#FFF" stroke-linecap="round" stroke-linejoin="round" stroke-width=".765" d="M66.346 52.135l39.178-32.573-.028.023c-3.156-3.838-6.813-7.367-10.957-10.489C89.537 5.33 84.16 2.407 78.582.307c-.034-.013-.024.071-.024.071l-18.03 47.49" transform="translate(-645 -405) translate(563 307) translate(83 99) translate(18.742 5.737)"/>
                        <path stroke="#FFF" stroke-width=".765" d="M98.477 25.281c6.008 7.292 10.212 16.231 11.81 26.235 4.788 29.967-15.624 58.141-45.59 62.929C34.73 119.233 6.556 98.82 1.768 68.854c-4.788-29.967 15.624-58.14 45.59-62.929 9.743-1.556 19.296-.45 27.917 2.783" transform="translate(-645 -405) translate(563 307) translate(83 99) translate(18.742 5.737)"/>
                        <path stroke="#FFF" stroke-width=".765" d="M96.95 26.6c5.77 7.018 9.809 15.615 11.346 25.235 4.611 28.866-15.051 56.006-43.917 60.618-28.867 4.612-56.007-15.05-60.62-43.917C-.85 39.669 18.812 12.529 47.678 7.917c9.421-1.505 18.658-.425 26.987 2.717" transform="translate(-645 -405) translate(563 307) translate(83 99) translate(18.742 5.737)"/>
                        <path fill="#FFF" fill-rule="nonzero" d="M93.757 45.37c.112.246.139.477.081.691-.059.215-.183.474-.374.778-.15.242-.238.422-.267.54-.03.118-.016.237.039.357.038.084.035.169-.008.254-.044.084-.116.15-.217.195-.092.043-.186.053-.279.03-.092-.024-.157-.077-.195-.161-.112-.247-.14-.477-.08-.692.057-.214.182-.473.372-.778.15-.241.24-.421.268-.539.028-.118.015-.237-.04-.357-.057-.126-.138-.216-.245-.269-.106-.053-.3-.106-.584-.158-.354-.057-.631-.133-.831-.231-.2-.097-.356-.269-.468-.515-.112-.246-.139-.476-.08-.691.058-.215.182-.475.372-.778.148-.249.236-.43.266-.545.03-.115.016-.235-.041-.361-.055-.12-.135-.208-.243-.265-.107-.056-.302-.107-.582-.153-.355-.057-.632-.133-.832-.23-.2-.098-.356-.27-.468-.517-.038-.083-.035-.168.009-.252.043-.086.112-.15.205-.192.1-.046.197-.057.29-.034.092.023.157.077.195.161.058.126.14.215.246.27.106.052.3.102.58.148.355.056.632.133.832.23.2.098.356.27.468.516.115.252.141.484.082.695-.06.213-.183.473-.371.783-.15.242-.24.42-.27.536-.03.115-.016.235.041.36.058.127.14.217.246.27.106.053.3.103.58.149.357.062.635.141.833.235.2.095.356.268.47.52zm-3.203 1.377c.111.247.138.477.08.691-.058.215-.183.474-.373.778-.15.242-.24.422-.268.54-.029.118-.015.237.04.357.037.084.035.169-.01.253-.042.085-.112.15-.205.191-.1.046-.197.058-.29.035-.092-.023-.157-.078-.195-.161-.112-.247-.139-.477-.08-.692.057-.214.182-.474.372-.778.15-.241.24-.421.268-.54.029-.117.015-.236-.039-.356-.057-.126-.139-.216-.245-.269-.106-.053-.301-.106-.584-.158-.355-.057-.632-.133-.832-.231-.2-.097-.356-.269-.468-.515-.112-.246-.139-.477-.08-.692.058-.214.182-.474.373-.778.147-.248.236-.429.265-.544.03-.115.017-.235-.04-.361-.055-.12-.136-.209-.244-.265-.107-.056-.302-.107-.582-.153-.355-.057-.632-.133-.832-.23-.2-.098-.356-.27-.468-.517-.038-.083-.034-.168.009-.253.043-.084.116-.15.216-.196.093-.042.186-.052.279-.029.092.023.158.077.196.161.057.126.14.215.245.269.106.053.3.103.581.15.354.055.632.132.83.23.202.097.357.269.47.515.114.252.14.484.082.695-.06.213-.184.473-.372.783-.15.242-.24.42-.27.535-.03.116-.016.236.042.362.057.126.138.216.245.269.106.053.3.103.58.149.357.062.636.14.834.235.2.094.355.268.47.52z" transform="translate(-645 -405) translate(563 307) translate(83 99) translate(18.742 5.737)"/>
                        <path d="M93.757 45.37c.112.246.139.477.081.691-.059.215-.183.474-.374.778-.15.242-.238.422-.267.54-.03.118-.016.237.039.357.038.084.035.169-.008.254-.044.084-.116.15-.217.195-.092.043-.186.053-.279.03-.092-.024-.157-.077-.195-.161-.112-.247-.14-.477-.08-.692.057-.214.182-.473.372-.778.15-.241.24-.421.268-.539.028-.118.015-.237-.04-.357-.057-.126-.138-.216-.245-.269-.106-.053-.3-.106-.584-.158-.354-.057-.631-.133-.831-.231-.2-.097-.356-.269-.468-.515-.112-.246-.139-.476-.08-.691.058-.215.182-.475.372-.778.148-.249.236-.43.266-.545.03-.115.016-.235-.041-.361-.055-.12-.135-.208-.243-.265-.107-.056-.302-.107-.582-.153-.355-.057-.632-.133-.832-.23-.2-.098-.356-.27-.468-.517-.038-.083-.035-.168.009-.252.043-.086.112-.15.205-.192.1-.046.197-.057.29-.034.092.023.157.077.195.161.058.126.14.215.246.27.106.052.3.102.58.148.355.056.632.133.832.23.2.098.356.27.468.516.115.252.141.484.082.695-.06.213-.183.473-.371.783-.15.242-.24.42-.27.536-.03.115-.016.235.041.36.058.127.14.217.246.27.106.053.3.103.58.149.357.062.635.141.833.235.2.095.356.268.47.52zm-3.203 1.377c.111.247.138.477.08.691-.058.215-.183.474-.373.778-.15.242-.24.422-.268.54-.029.118-.015.237.04.357.037.084.035.169-.01.253-.042.085-.112.15-.205.191-.1.046-.197.058-.29.035-.092-.023-.157-.078-.195-.161-.112-.247-.139-.477-.08-.692.057-.214.182-.474.372-.778.15-.241.24-.421.268-.54.029-.117.015-.236-.039-.356-.057-.126-.139-.216-.245-.269-.106-.053-.301-.106-.584-.158-.355-.057-.632-.133-.832-.231-.2-.097-.356-.269-.468-.515-.112-.246-.139-.477-.08-.692.058-.214.182-.474.373-.778.147-.248.236-.429.265-.544.03-.115.017-.235-.04-.361-.055-.12-.136-.209-.244-.265-.107-.056-.302-.107-.582-.153-.355-.057-.632-.133-.832-.23-.2-.098-.356-.27-.468-.517-.038-.083-.034-.168.009-.253.043-.084.116-.15.216-.196.093-.042.186-.052.279-.029.092.023.158.077.196.161.057.126.14.215.245.269.106.053.3.103.581.15.354.055.632.132.83.23.202.097.357.269.47.515.114.252.14.484.082.695-.06.213-.184.473-.372.783-.15.242-.24.42-.27.535-.03.116-.016.236.042.362.057.126.138.216.245.269.106.053.3.103.58.149.357.062.636.14.834.235.2.094.355.268.47.52z" transform="translate(-645 -405) translate(563 307) translate(83 99) translate(18.742 5.737)"/>
                        <path fill="#FFF" fill-rule="nonzero" d="M93.138 67.026c.008-.13-.014-.271-.065-.425-.05-.12-.171-.27-.363-.45-.19-.18-.384-.354-.577-.52l-.11-.103c-.183.02-.333.11-.451.268-.119.156-.204.378-.257.664-.034.18-.036.345-.008.495.029.15.09.285.187.407.111.15.238.258.381.323.144.064.258.098.344.1.099.004.231-.028.4-.097.168-.068.301-.172.4-.312.072-.104.111-.22.119-.35zm5.167-1.887c-.072.39-.266.698-.58.927-.314.228-.659.308-1.033.238l-3.493-.648s.183.264.268.373c.086.108.148.221.185.338.124.333.158.615.101.845-.056.231-.132.413-.23.547-.163.237-.378.414-.644.53-.266.116-.5.166-.701.149-.178-.005-.378-.063-.598-.173-.221-.11-.414-.273-.579-.49-.1-.135-.191-.32-.273-.556-.082-.236-.09-.527-.027-.873.028-.146.097-.358.208-.638.111-.278.301-.5.57-.663-.27-.257-.514-.548-.73-.874-.218-.326-.292-.675-.223-1.048.02-.1.049-.198.09-.294.04-.095.09-.19.146-.282.027-.037.057-.067.091-.092.035-.025.072-.04.113-.046.048-.012.092-.012.13-.002.037.01.073.03.108.056.036.02.065.05.088.089.022.039.036.079.041.122.006.042.005.085-.003.128s-.025.08-.05.11c-.2.286-.203.583-.012.89.19.308.982 1.094.982 1.094l4.513.838c.22.04.426-.007.615-.143.19-.135.307-.323.35-.56.043-.23 0-.442-.127-.637-.128-.195-.303-.313-.524-.354l-4.8-.89s-.178.046-.224-.028c-.045-.074-.06-.154-.044-.24.017-.094.06-.165.129-.215.068-.048.243-.082.243-.082l4.835.897c.203.038.391-.006.566-.13.173-.125.28-.297.32-.514.04-.211 0-.407-.117-.586s-.277-.29-.478-.334c-.09-.017-.158-.06-.207-.13-.05-.071-.066-.153-.049-.245.016-.086.06-.155.132-.206.072-.052.152-.07.241-.053.374.07.667.267.878.594.212.325.282.683.209 1.073-.039.21-.12.404-.24.58-.121.175-.273.315-.456.417.133.168.224.356.274.563.05.207.055.417.016.628z" transform="translate(-645 -405) translate(563 307) translate(83 99) translate(18.742 5.737)"/>
                        <path d="M93.138 67.026c.008-.13-.014-.271-.065-.425-.05-.12-.171-.27-.363-.45-.19-.18-.384-.354-.577-.52l-.11-.103c-.183.02-.333.11-.451.268-.119.156-.204.378-.257.664-.034.18-.036.345-.008.495.029.15.09.285.187.407.111.15.238.258.381.323.144.064.258.098.344.1.099.004.231-.028.4-.097.168-.068.301-.172.4-.312.072-.104.111-.22.119-.35zm5.167-1.887c-.072.39-.266.698-.58.927-.314.228-.659.308-1.033.238l-3.493-.648s.183.264.268.373c.086.108.148.221.185.338.124.333.158.615.101.845-.056.231-.132.413-.23.547-.163.237-.378.414-.644.53-.266.116-.5.166-.701.149-.178-.005-.378-.063-.598-.173-.221-.11-.414-.273-.579-.49-.1-.135-.191-.32-.273-.556-.082-.236-.09-.527-.027-.873.028-.146.097-.358.208-.638.111-.278.301-.5.57-.663-.27-.257-.514-.548-.73-.874-.218-.326-.292-.675-.223-1.048.02-.1.049-.198.09-.294.04-.095.09-.19.146-.282.027-.037.057-.067.091-.092.035-.025.072-.04.113-.046.048-.012.092-.012.13-.002.037.01.073.03.108.056.036.02.065.05.088.089.022.039.036.079.041.122.006.042.005.085-.003.128s-.025.08-.05.11c-.2.286-.203.583-.012.89.19.308.982 1.094.982 1.094l4.513.838c.22.04.426-.007.615-.143.19-.135.307-.323.35-.56.043-.23 0-.442-.127-.637-.128-.195-.303-.313-.524-.354l-4.8-.89s-.178.046-.224-.028c-.045-.074-.06-.154-.044-.24.017-.094.06-.165.129-.215.068-.048.243-.082.243-.082l4.835.897c.203.038.391-.006.566-.13.173-.125.28-.297.32-.514.04-.211 0-.407-.117-.586s-.277-.29-.478-.334c-.09-.017-.158-.06-.207-.13-.05-.071-.066-.153-.049-.245.016-.086.06-.155.132-.206.072-.052.152-.07.241-.053.374.07.667.267.878.594.212.325.282.683.209 1.073-.039.21-.12.404-.24.58-.121.175-.273.315-.456.417.133.168.224.356.274.563.05.207.055.417.016.628z" transform="translate(-645 -405) translate(563 307) translate(83 99) translate(18.742 5.737)"/>
                        <path fill="#FFF" fill-rule="nonzero" d="M88.559 88.895c-.047.073-.11.125-.196.151-.084.026-.166.019-.286.06l-2.81-1.5c-.032-.124-.084-.186-.111-.269-.027-.082-.019-.164.025-.246.04-.077.104-.128.19-.155.085-.025.166-.018.226.051l2.125 1.136-1.461-4.955-1.687.515c-.081.025-.161.016-.24-.026-.079-.042-.13-.104-.155-.185-.013-.045-.018-.089-.014-.132.004-.043.016-.082.035-.118.021-.04.049-.075.083-.102.033-.028.07-.046.113-.053l1.668-.526-.86-2.761c-.014-.044-.017-.088-.01-.13.007-.041.022-.082.044-.124.018-.034.043-.067.074-.096.03-.03.068-.05.113-.064.042-.008.084-.01.127-.006s.082.016.117.034c.042.022.076.05.103.083.027.034.046.068.057.104l.857 2.77 1.686-.516c.042-.007.083-.01.123-.008.04.004.08.016.122.038.034.018.066.044.093.078.027.033.05.07.066.109.008.042.01.084.006.127-.005.043-.016.082-.035.118-.022.04-.049.076-.08.105-.03.029-.066.047-.107.055l-1.687.516 1.435 4.904 1.14-2.134c.091-.05.154-.1.235-.13.083-.026.165-.018.248.025.075.04.127.104.152.19.026.085.019.166-.017.246l-1.508 2.821z" transform="translate(-645 -405) translate(563 307) translate(83 99) translate(18.742 5.737)"/>
                        <path d="M88.559 88.895c-.047.073-.11.125-.196.151-.084.026-.166.019-.286.06l-2.81-1.5c-.032-.124-.084-.186-.111-.269-.027-.082-.019-.164.025-.246.04-.077.104-.128.19-.155.085-.025.166-.018.226.051l2.125 1.136-1.461-4.955-1.687.515c-.081.025-.161.016-.24-.026-.079-.042-.13-.104-.155-.185-.013-.045-.018-.089-.014-.132.004-.043.016-.082.035-.118.021-.04.049-.075.083-.102.033-.028.07-.046.113-.053l1.668-.526-.86-2.761c-.014-.044-.017-.088-.01-.13.007-.041.022-.082.044-.124.018-.034.043-.067.074-.096.03-.03.068-.05.113-.064.042-.008.084-.01.127-.006s.082.016.117.034c.042.022.076.05.103.083.027.034.046.068.057.104l.857 2.77 1.686-.516c.042-.007.083-.01.123-.008.04.004.08.016.122.038.034.018.066.044.093.078.027.033.05.07.066.109.008.042.01.084.006.127-.005.043-.016.082-.035.118-.022.04-.049.076-.08.105-.03.029-.066.047-.107.055l-1.687.516 1.435 4.904 1.14-2.134c.091-.05.154-.1.235-.13.083-.026.165-.018.248.025.075.04.127.104.152.19.026.085.019.166-.017.246l-1.508 2.821z" transform="translate(-645 -405) translate(563 307) translate(83 99) translate(18.742 5.737)"/>
                        <path fill="#FFF" fill-rule="nonzero" d="M65.235 95.128c-.082-.033-.14-.091-.174-.173-.035-.083-.038-.168-.008-.257l.246-.878c.007-.062.032-.114.073-.157.04-.043.086-.075.136-.096.036-.015.074-.023.116-.024.042 0 .085.002.13.009.098.034.174.097.225.19.052.092.064.186.038.282l-.037.123.335-.142c.417-.176.84-.142 1.268.103.177.102.314.264.393.453l2.05 4.845c.05.116.178.268.287.331.247.145.502.161.764.05.206-.087.353-.231.442-.434.09-.203.093-.4.01-.595l-2.35-5.553s.055-.228.094-.325c.04-.096.105-.165.198-.204.092-.04.187-.04.284 0 .096.04.027.274.027.274l2.343 5.535c.088.207.237.353.449.44.21.086.42.085.625-.002.257-.108.418-.304.483-.586.033-.143 0-.373-.058-.508l-2.335-5.517s.042-.223.081-.32c.04-.096.109-.166.209-.208.093-.04.187-.04.284 0 .096.04.029.273.029.273l2.353 5.559s.397.257.595.338c.199.08.394.08.587-.001.192-.082.328-.222.409-.42.08-.2.078-.395-.004-.59-.042-.1-.043-.198-.005-.295.039-.096.105-.165.198-.204.1-.042.196-.042.289-.001.093.04.16.11.203.211.164.387.168.774.012 1.162-.155.387-.426.662-.812.825-.206.087-.418.128-.635.123-.216-.005-.42-.056-.613-.153-.072.208-.181.392-.329.551-.147.16-.323.284-.53.371-.2.085-.41.125-.63.12-.22-.003-.427-.053-.62-.15-.064.205-.171.389-.322.55-.15.16-.326.283-.525.368-.386.163-.773.166-1.163.01s-.667-.428-.927-.774l-2.017-4.764c.042-.17-.046-.259-.168-.308-.122-.05-.244-.05-.403-.089l-.6.254.155.155c.09.055.15.133.18.234.03.102.023.197-.024.284-.024.044-.055.08-.093.109-.038.028-.082.054-.133.075-.045.01-.092.014-.14.009-.049-.005-.095-.02-.139-.043l-.806-.445z" transform="translate(-645 -405) translate(563 307) translate(83 99) translate(18.742 5.737)"/>
                        <path d="M65.235 95.128c-.082-.033-.14-.091-.174-.173-.035-.083-.038-.168-.008-.257l.246-.878c.007-.062.032-.114.073-.157.04-.043.086-.075.136-.096.036-.015.074-.023.116-.024.042 0 .085.002.13.009.098.034.174.097.225.19.052.092.064.186.038.282l-.037.123.335-.142c.417-.176.84-.142 1.268.103.177.102.314.264.393.453l2.05 4.845c.05.116.178.268.287.331.247.145.502.161.764.05.206-.087.353-.231.442-.434.09-.203.093-.4.01-.595l-2.35-5.553s.055-.228.094-.325c.04-.096.105-.165.198-.204.092-.04.187-.04.284 0 .096.04.027.274.027.274l2.343 5.535c.088.207.237.353.449.44.21.086.42.085.625-.002.257-.108.418-.304.483-.586.033-.143 0-.373-.058-.508l-2.335-5.517s.042-.223.081-.32c.04-.096.109-.166.209-.208.093-.04.187-.04.284 0 .096.04.029.273.029.273l2.353 5.559s.397.257.595.338c.199.08.394.08.587-.001.192-.082.328-.222.409-.42.08-.2.078-.395-.004-.59-.042-.1-.043-.198-.005-.295.039-.096.105-.165.198-.204.1-.042.196-.042.289-.001.093.04.16.11.203.211.164.387.168.774.012 1.162-.155.387-.426.662-.812.825-.206.087-.418.128-.635.123-.216-.005-.42-.056-.613-.153-.072.208-.181.392-.329.551-.147.16-.323.284-.53.371-.2.085-.41.125-.63.12-.22-.003-.427-.053-.62-.15-.064.205-.171.389-.322.55-.15.16-.326.283-.525.368-.386.163-.773.166-1.163.01s-.667-.428-.927-.774l-2.017-4.764c.042-.17-.046-.259-.168-.308-.122-.05-.244-.05-.403-.089l-.6.254.155.155c.09.055.15.133.18.234.03.102.023.197-.024.284-.024.044-.055.08-.093.109-.038.028-.082.054-.133.075-.045.01-.092.014-.14.009-.049-.005-.095-.02-.139-.043l-.806-.445z" transform="translate(-645 -405) translate(563 307) translate(83 99) translate(18.742 5.737)"/>
                        <path fill="#FFF" fill-rule="nonzero" d="M47.295 95.8c-.094-.01-.173-.05-.235-.123-.063-.071-.09-.158-.079-.26.01-.093.052-.171.128-.233.076-.062.161-.088.255-.078l8.71.866c.096.01.174.052.236.127.062.076.089.161.08.255-.01.101-.053.18-.129.24-.075.058-.16.082-.256.073l-8.71-.867zm8.81 2.279c.097.031.18.076.246.155.065.08.093.17.083.269-.01.1-.054.18-.134.246-.08.065-.281.198-.281.198l-2.104-.21s.012.02.01.082c-.003.062-.008.127-.014.195-.035.35-.135.676-.3.975-.165.3-.377.553-.633.763-.257.21-.55.365-.877.467-.327.103-.671.136-1.032.1-.352-.035-.679-.135-.98-.3-.3-.165-.556-.375-.767-.63-.21-.257-.368-.548-.47-.874-.103-.325-.138-.663-.103-1.015.007-.069.016-.133.025-.194l.043-.251-1.964-.196c-.102-.01-.184-.053-.246-.128-.062-.076-.089-.16-.08-.255.01-.094.053-.172.128-.234.076-.061.165-.087.267-.077l2.976.296-.236.495c-.048.096-.086.195-.116.3-.03.105-.05.211-.06.317-.05.504.086.952.411 1.346.324.395.74.617 1.246.668.513.05.967-.085 1.363-.407.396-.323.62-.736.67-1.239.01-.107.01-.212.002-.318-.01-.105-.027-.212-.055-.322l-.133-.532 3.115.31z" transform="translate(-645 -405) translate(563 307) translate(83 99) translate(18.742 5.737)"/>
                        <path d="M47.295 95.8c-.094-.01-.173-.05-.235-.123-.063-.071-.09-.158-.079-.26.01-.093.052-.171.128-.233.076-.062.161-.088.255-.078l8.71.866c.096.01.174.052.236.127.062.076.089.161.08.255-.01.101-.053.18-.129.24-.075.058-.16.082-.256.073l-8.71-.867zm8.81 2.279c.097.031.18.076.246.155.065.08.093.17.083.269-.01.1-.054.18-.134.246-.08.065-.281.198-.281.198l-2.104-.21s.012.02.01.082c-.003.062-.008.127-.014.195-.035.35-.135.676-.3.975-.165.3-.377.553-.633.763-.257.21-.55.365-.877.467-.327.103-.671.136-1.032.1-.352-.035-.679-.135-.98-.3-.3-.165-.556-.375-.767-.63-.21-.257-.368-.548-.47-.874-.103-.325-.138-.663-.103-1.015.007-.069.016-.133.025-.194l.043-.251-1.964-.196c-.102-.01-.184-.053-.246-.128-.062-.076-.089-.16-.08-.255.01-.094.053-.172.128-.234.076-.061.165-.087.267-.077l2.976.296-.236.495c-.048.096-.086.195-.116.3-.03.105-.05.211-.06.317-.05.504.086.952.411 1.346.324.395.74.617 1.246.668.513.05.967-.085 1.363-.407.396-.323.62-.736.67-1.239.01-.107.01-.212.002-.318-.01-.105-.027-.212-.055-.322l-.133-.532 3.115.31z" transform="translate(-645 -405) translate(563 307) translate(83 99) translate(18.742 5.737)"/>
                        <path fill="#FFF" fill-rule="nonzero" d="M32.554 88.77l-.021-.109c-.521.206-.943.415-1.266.627-.323.21-.507.329-.55.354-.228.183-.408.377-.538.58-.13.204-.194.397-.19.58.002.091.023.171.063.238.04.068.101.128.182.182.217.144.403.158.555.042.153-.116.247-.194.282-.234l1.443-2.178c.008-.013.016-.028.023-.046.007-.017.013-.03.017-.036zm-1.529-1.395c-.051-.099-.102-.175-.12-.274-.02-.098-.003-.189.051-.27.059-.088.135-.144.23-.167.097-.022.287.035.287.035l.957.634c.04.027.078.056.111.087l.106.097c.247-.062.495-.11.744-.145.248-.034.494-.057.736-.068.04 0 .082.004.124.014.043.01.084.029.125.056.048.031.087.073.116.124.03.052.052.104.065.158.007.05.002.097-.012.141-.015.045-.037.09-.066.133-.032.033-.07.062-.116.086-.045.024-.091.035-.138.03-.196.015-.395.035-.598.059-.202.024-.401.058-.597.1.003.012.004.02.003.03 0 .008 0 .018.003.029.017.137.01.275-.018.415-.028.14-.08.266-.155.379l-2.766 4.177c-.112.17-.144.36-.095.568.048.208.168.376.36.502.183.122.383.166.597.132.214-.035.377-.137.49-.307l3.21-4.848s.107-.162.205-.183c.099-.02.188-.004.269.05.08.052.13.129.15.227.02.1-.286.13-.286.13l-3.201 4.834c-.124.187-.164.392-.12.614.044.223.158.396.343.518.19.126.396.165.614.116.219-.049.39-.167.514-.353l3.201-4.835s.244-.072.343-.092c.098-.02.191-.002.278.055.081.054.131.13.15.229.02.099-.095.255-.095.255l-3.222 4.866s-.11.381-.071.584c.04.203.144.36.312.47.167.112.352.146.555.104.202-.042.36-.149.472-.319.058-.087.137-.141.235-.162.099-.021.189-.005.27.049.086.058.138.135.154.231.017.098-.004.19-.063.278-.225.34-.534.55-.929.633-.393.083-.758.013-1.094-.21-.18-.119-.326-.267-.436-.444-.111-.177-.178-.369-.203-.575-.205.054-.411.065-.618.032-.206-.033-.399-.108-.579-.228-.174-.115-.318-.263-.431-.442-.115-.179-.184-.372-.208-.578-.2.058-.404.07-.613.035-.21-.035-.401-.11-.575-.225-.335-.222-.544-.531-.625-.929-.081-.397-.01-.765.055-1.211l.655-.99c.061.094-.035.072-.128.037-.093-.035-.186-.083-.28-.145-.173-.115-.31-.26-.41-.434-.099-.174-.152-.363-.16-.568-.01-.295.075-.599.254-.91.179-.31.433-.593.762-.845.07-.053.268-.184.595-.393.326-.21.749-.417 1.24-.578l-.913-.605z" transform="translate(-645 -405) translate(563 307) translate(83 99) translate(18.742 5.737)"/>
                        <path d="M32.554 88.77l-.021-.109c-.521.206-.943.415-1.266.627-.323.21-.507.329-.55.354-.228.183-.408.377-.538.58-.13.204-.194.397-.19.58.002.091.023.171.063.238.04.068.101.128.182.182.217.144.403.158.555.042.153-.116.247-.194.282-.234l1.443-2.178c.008-.013.016-.028.023-.046.007-.017.013-.03.017-.036zm-1.529-1.395c-.051-.099-.102-.175-.12-.274-.02-.098-.003-.189.051-.27.059-.088.135-.144.23-.167.097-.022.287.035.287.035l.957.634c.04.027.078.056.111.087l.106.097c.247-.062.495-.11.744-.145.248-.034.494-.057.736-.068.04 0 .082.004.124.014.043.01.084.029.125.056.048.031.087.073.116.124.03.052.052.104.065.158.007.05.002.097-.012.141-.015.045-.037.09-.066.133-.032.033-.07.062-.116.086-.045.024-.091.035-.138.03-.196.015-.395.035-.598.059-.202.024-.401.058-.597.1.003.012.004.02.003.03 0 .008 0 .018.003.029.017.137.01.275-.018.415-.028.14-.08.266-.155.379l-2.766 4.177c-.112.17-.144.36-.095.568.048.208.168.376.36.502.183.122.383.166.597.132.214-.035.377-.137.49-.307l3.21-4.848s.107-.162.205-.183c.099-.02.188-.004.269.05.08.052.13.129.15.227.02.1-.286.13-.286.13l-3.201 4.834c-.124.187-.164.392-.12.614.044.223.158.396.343.518.19.126.396.165.614.116.219-.049.39-.167.514-.353l3.201-4.835s.244-.072.343-.092c.098-.02.191-.002.278.055.081.054.131.13.15.229.02.099-.095.255-.095.255l-3.222 4.866s-.11.381-.071.584c.04.203.144.36.312.47.167.112.352.146.555.104.202-.042.36-.149.472-.319.058-.087.137-.141.235-.162.099-.021.189-.005.27.049.086.058.138.135.154.231.017.098-.004.19-.063.278-.225.34-.534.55-.929.633-.393.083-.758.013-1.094-.21-.18-.119-.326-.267-.436-.444-.111-.177-.178-.369-.203-.575-.205.054-.411.065-.618.032-.206-.033-.399-.108-.579-.228-.174-.115-.318-.263-.431-.442-.115-.179-.184-.372-.208-.578-.2.058-.404.07-.613.035-.21-.035-.401-.11-.575-.225-.335-.222-.544-.531-.625-.929-.081-.397-.01-.765.055-1.211l.655-.99c.061.094-.035.072-.128.037-.093-.035-.186-.083-.28-.145-.173-.115-.31-.26-.41-.434-.099-.174-.152-.363-.16-.568-.01-.295.075-.599.254-.91.179-.31.433-.593.762-.845.07-.053.268-.184.595-.393.326-.21.749-.417 1.24-.578l-.913-.605z" transform="translate(-645 -405) translate(563 307) translate(83 99) translate(18.742 5.737)"/>
                        <path fill="#FFF" fill-rule="nonzero" d="M22.32 75.756c-.48.087-.864.33-1.152.726-.288.397-.395.833-.32 1.308.082.472.322.845.719 1.121.396.276.836.374 1.318.293.236-.041.452-.125.649-.25.196-.126.364-.284.502-.476.141-.185.238-.39.29-.616.052-.226.059-.455.019-.688-.03-.228-.106-.438-.23-.63-.125-.192-.284-.36-.48-.501-.19-.127-.4-.216-.629-.269-.229-.051-.458-.058-.687-.018m-2.502-4.807c-.017-.102.005-.193.066-.278.062-.085.145-.132.25-.144.243-.045.48-.041.709.01.229.053.44.145.633.28.202.137.367.305.492.5.126.197.207.415.242.658.04.233.033.465-.022.695-.054.231-.15.442-.289.634-.145.195-.318.356-.518.483-.2.126-.418.21-.654.253-.102.018-.2.026-.294.025-.094-.002-.192-.014-.295-.036l-.129-.033c-.047-.013-.102-.031-.162-.055-.02-.009-.06-.023-.12-.043-.06-.02-.108-.035-.146-.044l-.05-.029c-.312-.116-.555-.19-.728-.22-.174-.03-.356-.029-.546.002-.542.098-.973.368-1.292.811-.32.444-.438.931-.356 1.461.091.535.36.958.806 1.27.447.314.941.422 1.484.323.306-.055.588-.177.847-.366.258-.189.458-.425.6-.71.191-.364.448-.666.77-.907.32-.24.677-.395 1.072-.463.591-.102 1.142-.012 1.651.27.51.283.874.68 1.092 1.194.04.091.072.18.101.268.029.088.052.181.07.282.053.326.044.651-.031.974-.075.322-.21.62-.407.895-.196.275-.437.5-.722.675-.285.176-.593.292-.924.35-.331.057-.659.052-.985-.018-.325-.069-.627-.199-.902-.389s-.5-.423-.671-.699c-.173-.276-.286-.576-.34-.902-.002-.025-.007-.05-.013-.076-.007-.026-.011-.051-.013-.075-.16.1-.33.19-.509.266-.18.077-.368.131-.565.165-.37.066-.73.058-1.083-.025s-.671-.224-.955-.423c-.283-.2-.524-.448-.723-.745-.199-.298-.325-.63-.38-.998-.062-.364-.05-.72.034-1.068.086-.348.23-.663.436-.946.205-.283.46-.524.765-.724.304-.2.642-.33 1.015-.389.268-.047.517-.053.747-.018.232.034.538.124.921.269l.072.02.13.05c.046.018.077.027.094.028.041.016.079.03.113.04.034.01.064.018.092.023.055.01.104.016.148.018.043.003.09-.003.144-.018.292-.05.524-.192.695-.427.17-.234.23-.494.176-.779-.043-.28-.183-.504-.418-.67-.235-.165-.5-.224-.791-.173-.047.01-.094.01-.142-.003-.047-.013-.093-.032-.137-.054-.039-.033-.072-.07-.099-.114-.026-.043-.045-.087-.056-.131" transform="translate(-645 -405) translate(563 307) translate(83 99) translate(18.742 5.737)"/>
                        <path d="M22.32 75.756c-.48.087-.864.33-1.152.726-.288.397-.395.833-.32 1.308.082.472.322.845.719 1.121.396.276.836.374 1.318.293.236-.041.452-.125.649-.25.196-.126.364-.284.502-.476.141-.185.238-.39.29-.616.052-.226.059-.455.019-.688-.03-.228-.106-.438-.23-.63-.125-.192-.284-.36-.48-.501-.19-.127-.4-.216-.629-.269-.229-.051-.458-.058-.687-.018zm-2.503-4.807c-.017-.102.005-.193.066-.278.062-.085.145-.132.25-.144.243-.045.48-.041.709.01.229.053.44.145.633.28.202.137.367.305.492.5.126.197.207.415.242.658.04.233.033.465-.022.695-.054.231-.15.442-.289.634-.145.195-.318.356-.518.483-.2.126-.418.21-.654.253-.102.018-.2.026-.294.025-.094-.002-.192-.014-.295-.036l-.129-.033c-.047-.013-.102-.031-.162-.055-.02-.009-.06-.023-.12-.043-.06-.02-.108-.035-.146-.044l-.05-.029c-.312-.116-.555-.19-.728-.22-.174-.03-.356-.029-.546.002-.542.098-.973.368-1.292.811-.32.444-.438.931-.356 1.461.091.535.36.958.806 1.27.447.314.941.422 1.484.323.306-.055.588-.177.847-.366.258-.189.458-.425.6-.71.191-.364.448-.666.77-.907.32-.24.677-.395 1.072-.463.591-.102 1.142-.012 1.651.27.51.283.874.68 1.092 1.194.04.091.072.18.101.268.029.088.052.181.07.282.053.326.044.651-.031.974-.075.322-.21.62-.407.895-.196.275-.437.5-.722.675-.285.176-.593.292-.924.35-.331.057-.659.052-.985-.018-.325-.069-.627-.199-.902-.389s-.5-.423-.671-.699c-.173-.276-.286-.576-.34-.902-.002-.025-.007-.05-.013-.076-.007-.026-.011-.051-.013-.075-.16.1-.33.19-.509.266-.18.077-.368.131-.565.165-.37.066-.73.058-1.083-.025s-.671-.224-.955-.423c-.283-.2-.524-.448-.723-.745-.199-.298-.325-.63-.38-.998-.062-.364-.05-.72.034-1.068.086-.348.23-.663.436-.946.205-.283.46-.524.765-.724.304-.2.642-.33 1.015-.389.268-.047.517-.053.747-.018.232.034.538.124.921.269l.072.02.13.05c.046.018.077.027.094.028.041.016.079.03.113.04.034.01.064.018.092.023.055.01.104.016.148.018.043.003.09-.003.144-.018.292-.05.524-.192.695-.427.17-.234.23-.494.176-.779-.043-.28-.183-.504-.418-.67-.235-.165-.5-.224-.791-.173-.047.01-.094.01-.142-.003-.047-.013-.093-.032-.137-.054-.039-.033-.072-.07-.099-.114-.026-.043-.045-.087-.056-.131z" transform="translate(-645 -405) translate(563 307) translate(83 99) translate(18.742 5.737)"/>
                        <path fill="#FFF" fill-rule="nonzero" d="M14.822 57.665c.103-.35.318-.618.643-.803.325-.185.665-.227 1.017-.123.343.1.605.319.783.652.176.331.213.674.11 1.024-.104.358-.322.63-.65.813-.33.184-.668.226-1.011.125-.352-.103-.615-.322-.788-.654-.174-.331-.209-.676-.104-1.034zm-.883-2.408c-.09.31-.152.628-.183.953-.03.323-.032.644-.004.96.028.318.088.631.178.941.09.31.21.611.358.902.127.248.294.463.503.647.208.182.447.313.717.393.52.152 1.02.093 1.505-.178.485-.271.806-.675.964-1.213.155-.53.103-1.038-.159-1.53-.286-.537-.727-.87-1.323-1.002-.283-.062-.581-.058-.862.014-.484.125-.867.382-1.146.776l-.089.124-.006-.152c-.01-.247 0-.49.03-.73.028-.24.078-.48.149-.72.163-.557.422-1.06.778-1.512.355-.45.784-.817 1.287-1.098.043-.024.075-.052.099-.087.025-.038.043-.076.056-.116.013-.048.018-.094.013-.138-.005-.045-.015-.084-.036-.123-.015-.038-.039-.07-.071-.097-.034-.028-.074-.049-.12-.062-.038-.012-.079-.015-.123-.01-.044.006-.086.02-.129.044-.29.162-.559.35-.807.565-.249.215-.473.45-.672.703-.2.254-.378.527-.532.82-.154.292-.28.6-.375.926zm4.571-.948c.105-.357.32-.628.644-.809.324-.181.664-.22 1.015-.117.351.103.615.32.79.647.174.328.21.672.104 1.03-.105.357-.32.627-.644.808-.324.181-.664.22-1.015.117-.35-.103-.615-.32-.79-.647-.174-.328-.21-.671-.104-1.029zm-.632-.185c-.155.53-.102 1.039.159 1.53.261.49.654.811 1.18.966.403.118.8.107 1.195-.032.395-.14.717-.378.968-.719l.088-.12.006.149c.01.247 0 .49-.028.73-.03.239-.08.48-.15.719-.164.557-.425 1.061-.784 1.511-.358.45-.79.815-1.293 1.096-.042.024-.075.053-.099.087-.025.038-.044.077-.055.117-.014.047-.019.093-.014.137.004.045.016.084.033.117.023.044.052.079.086.107.034.028.07.047.108.059.046.013.09.017.134.012.042-.005.08-.02.118-.047.29-.161.56-.347.813-.558.25-.21.476-.444.677-.7.2-.259.378-.534.533-.826.154-.292.279-.6.375-.927.09-.31.152-.627.182-.952.03-.324.03-.645-.001-.963-.032-.318-.091-.631-.178-.94-.086-.31-.204-.61-.353-.9-.126-.248-.295-.462-.51-.642-.212-.18-.45-.31-.713-.387-.527-.154-1.03-.098-1.515.17-.484.267-.804.668-.962 1.206z" transform="translate(-645 -405) translate(563 307) translate(83 99) translate(18.742 5.737)"/>
                        <path d="M14.822 57.665c.103-.35.318-.618.643-.803.325-.185.665-.227 1.017-.123.343.1.605.319.783.652.176.331.213.674.11 1.024-.104.358-.322.63-.65.813-.33.184-.668.226-1.011.125-.352-.103-.615-.322-.788-.654-.174-.331-.209-.676-.104-1.034zm-.883-2.408c-.09.31-.152.628-.183.953-.03.323-.032.644-.004.96.028.318.088.631.178.941.09.31.21.611.358.902.127.248.294.463.503.647.208.182.447.313.717.393.52.152 1.02.093 1.505-.178.485-.271.806-.675.964-1.213.155-.53.103-1.038-.159-1.53-.286-.537-.727-.87-1.323-1.002-.283-.062-.581-.058-.862.014-.484.125-.867.382-1.146.776l-.089.124-.006-.152c-.01-.247 0-.49.03-.73.028-.24.078-.48.149-.72.163-.557.422-1.06.778-1.512.355-.45.784-.817 1.287-1.098.043-.024.075-.052.099-.087.025-.038.043-.076.056-.116.013-.048.018-.094.013-.138-.005-.045-.015-.084-.036-.123-.015-.038-.039-.07-.071-.097-.034-.028-.074-.049-.12-.062-.038-.012-.079-.015-.123-.01-.044.006-.086.02-.129.044-.29.162-.559.35-.807.565-.249.215-.473.45-.672.703-.2.254-.378.527-.532.82-.154.292-.28.6-.375.926zm4.571-.948c.105-.357.32-.628.644-.809.324-.181.664-.22 1.015-.117.351.103.615.32.79.647.174.328.21.672.104 1.03-.105.357-.32.627-.644.808-.324.181-.664.22-1.015.117-.35-.103-.615-.32-.79-.647-.174-.328-.21-.671-.104-1.029zm-.632-.185c-.155.53-.102 1.039.159 1.53.261.49.654.811 1.18.966.403.118.8.107 1.195-.032.395-.14.717-.378.968-.719l.088-.12.006.149c.01.247 0 .49-.028.73-.03.239-.08.48-.15.719-.164.557-.425 1.061-.784 1.511-.358.45-.79.815-1.293 1.096-.042.024-.075.053-.099.087-.025.038-.044.077-.055.117-.014.047-.019.093-.014.137.004.045.016.084.033.117.023.044.052.079.086.107.034.028.07.047.108.059.046.013.09.017.134.012.042-.005.08-.02.118-.047.29-.161.56-.347.813-.558.25-.21.476-.444.677-.7.2-.259.378-.534.533-.826.154-.292.279-.6.375-.927.09-.31.152-.627.182-.952.03-.324.03-.645-.001-.963-.032-.318-.091-.631-.178-.94-.086-.31-.204-.61-.353-.9-.126-.248-.295-.462-.51-.642-.212-.18-.45-.31-.713-.387-.527-.154-1.03-.098-1.515.17-.484.267-.804.668-.962 1.206z" transform="translate(-645 -405) translate(563 307) translate(83 99) translate(18.742 5.737)"/>
                        <path fill="#FFF" fill-rule="nonzero" d="M23.395 36.206l3.207 2.347c-.108.077-.208.212-.34.322-.099.135-.23.246-.33.38-.099.136-.198.27-.263.43-.074.101-.14.261-.18.387l-3.206-2.347c.447-.4.843-.939 1.112-1.52m6.058 1.238c-.387.03-.772.06-1.14.206-.343.114-1 .442-1 .442l-3.625-2.653s.115-.726.119-1.088c-.03-.386-.06-.771-.147-1.148-.044-.084-.078-.108-.08-.176l-.135-.1c-.041-.015-.133-.031-.133-.031-.059.01-.093-.016-.118.018-.117.018-.142.052-.184.073l-.1.136c-.006.046-.032.08-.048.173.01.059-.015.093-.006.151.174.544.197 1.081.103 1.637-.095.555-.315 1.07-.662 1.544-.348.474-.772.84-1.272 1.098-.502.258-1.02.398-1.591.396-.034-.024-.093-.015-.151-.006-.025.034-.012.147-.012.147l-.1.137c.008.058-.016.092-.008.15.009.058-.016.092-.008.15.067.049.075.106.109.13l.133.098c.057-.01.09.015.149.006.381-.032.762-.065 1.126-.213.339-.115.703-.263 1.033-.436l3.558 2.604c-.065.368-.13.735-.104 1.117.028.383.054.765.163 1.104-.05.068-.016.092-.008.15l.133.097c.034.025.091.015.124.04.058-.01.092.015.175-.029.058-.01.082-.043.14-.052l.1-.137s.047-.07.072-.103c-.01-.059.016-.092-.027-.176-.174-.544-.198-1.081-.103-1.636.094-.555.315-1.07.662-1.545.348-.475.771-.84 1.273-1.097.5-.259 1.02-.399 1.615-.431.059-.01.093.016.142-.052.059-.01.083-.043.216-.05l.024-.034c-.057-.095-.033-.128-.041-.188.024-.033.015-.092.04-.125-.009-.06-.018-.118-.051-.142-.01-.06-.044-.084-.096-.085l-.135-.098c-.032.043-.066.018-.124.027" transform="translate(-645 -405) translate(563 307) translate(83 99) translate(18.742 5.737)"/>
                        <path d="M23.395 36.206l3.207 2.347c-.108.077-.208.212-.34.322-.099.135-.23.246-.33.38-.099.136-.198.27-.263.43-.074.101-.14.261-.18.387l-3.206-2.347c.447-.4.843-.939 1.112-1.52zm6.058 1.237c-.387.03-.772.06-1.14.206-.343.114-1 .442-1 .442l-3.625-2.653s.115-.726.119-1.088c-.03-.386-.06-.771-.147-1.148-.044-.084-.078-.108-.08-.176l-.135-.1c-.041-.015-.133-.031-.133-.031-.059.01-.093-.016-.118.018-.117.018-.142.052-.184.073l-.1.136c-.006.046-.032.08-.048.173.01.059-.015.093-.006.151.174.544.197 1.081.103 1.637-.095.555-.315 1.07-.662 1.544-.348.474-.772.84-1.272 1.098-.502.258-1.02.398-1.591.396-.034-.024-.093-.015-.151-.006-.025.034-.012.147-.012.147l-.1.137c.008.058-.016.092-.008.15.009.058-.016.092-.008.15.067.049.075.106.109.13l.133.098c.057-.01.09.015.149.006.381-.032.762-.065 1.126-.213.339-.115.703-.263 1.033-.436l3.558 2.604c-.065.368-.13.735-.104 1.117.028.383.054.765.163 1.104-.05.068-.016.092-.008.15l.133.097c.034.025.091.015.124.04.058-.01.092.015.175-.029.058-.01.082-.043.14-.052l.1-.137s.047-.07.072-.103c-.01-.059.016-.092-.027-.176-.174-.544-.198-1.081-.103-1.636.094-.555.315-1.07.662-1.545.348-.475.771-.84 1.273-1.097.5-.259 1.02-.399 1.615-.431.059-.01.093.016.142-.052.059-.01.083-.043.216-.05l.024-.034c-.057-.095-.033-.128-.041-.188.024-.033.015-.092.04-.125-.009-.06-.018-.118-.051-.142-.01-.06-.044-.084-.096-.085l-.135-.098c-.032.043-.066.018-.124.027z" transform="translate(-645 -405) translate(563 307) translate(83 99) translate(18.742 5.737)"/>
                        <path fill="#FFF" fill-rule="nonzero" d="M39.695 24.69c-.507.227-.857.606-1.052 1.14-.195.533-.176 1.058.058 1.579.233.52.614.885 1.142 1.093.527.209 1.044.2 1.55-.028.5-.225.848-.604 1.043-1.136.195-.533.175-1.06-.058-1.58-.234-.52-.614-.884-1.142-1.093-.527-.208-1.04-.2-1.54.024m2.783-4.756c.09-.04.184-.041.28-.003.096.038.165.104.207.196.04.092.044.188.009.285-.036.097-.099.166-.19.206-.43.194-.766.448-1.01.762-.241.314-.425.743-.547 1.287-.052.237-.113.446-.182.627-.069.181-.154.345-.255.493.495.06.944.238 1.347.532.403.295.709.674.917 1.137.16.356.244.72.253 1.093.009.373-.05.727-.174 1.061-.126.334-.31.638-.555.91-.245.273-.538.486-.878.638-.347.156-.704.235-1.07.237-.367.002-.716-.062-1.05-.19-.333-.13-.636-.321-.908-.575-.273-.255-.489-.56-.649-.917-.208-.463-.289-.94-.242-1.432.045-.491.207-.94.483-1.347-.177-.023-.36-.07-.55-.138-.189-.07-.385-.161-.587-.277-.433-.276-.853-.432-1.26-.467-.409-.036-.835.047-1.28.246-.09.04-.182.044-.277.01-.095-.035-.165-.103-.21-.202-.04-.093-.044-.188-.008-.285.035-.098.098-.167.188-.207.563-.253 1.105-.359 1.628-.32.523.04 1.053.23 1.59.572.349.203.668.314.957.334.288.02.599-.044.932-.194.32-.143.563-.327.728-.551.167-.225.298-.547.393-.967.157-.653.391-1.181.702-1.586.31-.405.733-.728 1.268-.968" transform="translate(-645 -405) translate(563 307) translate(83 99) translate(18.742 5.737)"/>
                        <path d="M39.695 24.69c-.507.227-.857.606-1.052 1.14-.195.533-.176 1.058.058 1.579.233.52.614.885 1.142 1.093.527.209 1.044.2 1.55-.028.5-.225.848-.604 1.043-1.136.195-.533.175-1.06-.058-1.58-.234-.52-.614-.884-1.142-1.093-.527-.208-1.04-.2-1.54.024zm2.784-4.757c.09-.04.184-.041.28-.003.096.038.165.104.207.196.04.092.044.188.009.285-.036.097-.099.166-.19.206-.43.194-.766.448-1.01.762-.241.314-.425.743-.547 1.287-.052.237-.113.446-.182.627-.069.181-.154.345-.255.493.495.06.944.238 1.347.532.403.295.709.674.917 1.137.16.356.244.72.253 1.093.009.373-.05.727-.174 1.061-.126.334-.31.638-.555.91-.245.273-.538.486-.878.638-.347.156-.704.235-1.07.237-.367.002-.716-.062-1.05-.19-.333-.13-.636-.321-.908-.575-.273-.255-.489-.56-.649-.917-.208-.463-.289-.94-.242-1.432.045-.491.207-.94.483-1.347-.177-.023-.36-.07-.55-.138-.189-.07-.385-.161-.587-.277-.433-.276-.853-.432-1.26-.467-.409-.036-.835.047-1.28.246-.09.04-.182.044-.277.01-.095-.035-.165-.103-.21-.202-.04-.093-.044-.188-.008-.285.035-.098.098-.167.188-.207.563-.253 1.105-.359 1.628-.32.523.04 1.053.23 1.59.572.349.203.668.314.957.334.288.02.599-.044.932-.194.32-.143.563-.327.728-.551.167-.225.298-.547.393-.967.157-.653.391-1.181.702-1.586.31-.405.733-.728 1.268-.968z" transform="translate(-645 -405) translate(563 307) translate(83 99) translate(18.742 5.737)"/>
                        <path fill="#FFF" fill-rule="nonzero" d="M63.895 19.77c.44.203.747.539.922 1.007.176.468.17.925-.02 1.372-.08.179-.179.34-.302.489-.121.146-.264.27-.427.373-.079.051-.16.065-.243.043-.083-.022-.15-.07-.201-.143-.022-.042-.036-.084-.041-.125-.005-.04-.002-.083.01-.13.01-.038.028-.075.052-.11.023-.033.052-.061.088-.084.107-.068.202-.15.285-.244.082-.095.148-.2.193-.315.126-.294.13-.593.011-.896-.117-.305-.318-.523-.6-.655-.288-.133-.585-.144-.892-.034-.305.11-.53.306-.674.592l-2.007 5.104c-.026.063-.07.114-.13.15-.06.037-.127.052-.198.044l-.157-.018c-.071-.008-.133-.036-.183-.085-.05-.05-.082-.111-.093-.186l-.816-5.37c-.07-.315-.24-.563-.51-.745-.27-.18-.557-.244-.86-.19-.161.028-.308.089-.44.181-.133.092-.247.206-.341.343-.088.137-.146.286-.173.447-.028.16-.025.324.01.488.027.11.067.215.122.315.055.1.124.188.208.263.066.068.098.146.099.232 0 .087-.03.165-.09.23-.06.061-.134.092-.224.092s-.163-.03-.223-.09c-.131-.122-.24-.26-.324-.413-.086-.153-.148-.316-.189-.487-.051-.247-.055-.495-.01-.744.044-.25.134-.48.27-.693.136-.212.307-.387.514-.524.207-.138.435-.23.684-.275.48-.093.922 0 1.33.28.408.28.666.666.776 1.16l.004.005c.003.004.004.009.003.016l.684 4.511 1.687-4.287.002-.014c0-.003.004-.008.01-.014.217-.451.559-.76 1.026-.93.467-.167.926-.146 1.378.065z" transform="translate(-645 -405) translate(563 307) translate(83 99) translate(18.742 5.737)"/>
                        <path d="M63.895 19.77c.44.203.747.539.922 1.007.176.468.17.925-.02 1.372-.08.179-.179.34-.302.489-.121.146-.264.27-.427.373-.079.051-.16.065-.243.043-.083-.022-.15-.07-.201-.143-.022-.042-.036-.084-.041-.125-.005-.04-.002-.083.01-.13.01-.038.028-.075.052-.11.023-.033.052-.061.088-.084.107-.068.202-.15.285-.244.082-.095.148-.2.193-.315.126-.294.13-.593.011-.896-.117-.305-.318-.523-.6-.655-.288-.133-.585-.144-.892-.034-.305.11-.53.306-.674.592l-2.007 5.104c-.026.063-.07.114-.13.15-.06.037-.127.052-.198.044l-.157-.018c-.071-.008-.133-.036-.183-.085-.05-.05-.082-.111-.093-.186l-.816-5.37c-.07-.315-.24-.563-.51-.745-.27-.18-.557-.244-.86-.19-.161.028-.308.089-.44.181-.133.092-.247.206-.341.343-.088.137-.146.286-.173.447-.028.16-.025.324.01.488.027.11.067.215.122.315.055.1.124.188.208.263.066.068.098.146.099.232 0 .087-.03.165-.09.23-.06.061-.134.092-.224.092s-.163-.03-.223-.09c-.131-.122-.24-.26-.324-.413-.086-.153-.148-.316-.189-.487-.051-.247-.055-.495-.01-.744.044-.25.134-.48.27-.693.136-.212.307-.387.514-.524.207-.138.435-.23.684-.275.48-.093.922 0 1.33.28.408.28.666.666.776 1.16l.004.005c.003.004.004.009.003.016l.684 4.511 1.687-4.287.002-.014c0-.003.004-.008.01-.014.217-.451.559-.76 1.026-.93.467-.167.926-.146 1.378.065z" transform="translate(-645 -405) translate(563 307) translate(83 99) translate(18.742 5.737)"/>
                        <path stroke="#FFF" stroke-width=".765" d="M48.342 70.794c-5.862-4.246-7.17-12.44-2.924-18.302 4.246-5.861 12.44-7.17 18.301-2.924 5.862 4.247 7.171 12.441 2.925 18.302-4.247 5.862-12.441 7.17-18.302 2.924zm16.591-35.04c-4.025-1.472-8.471-1.966-13.003-1.242-14.177 2.265-23.834 15.594-21.568 29.77 2.264 14.177 15.593 23.833 29.77 21.568C74.308 83.586 83.965 70.257 81.7 56.08c-.742-4.639-2.667-8.793-5.42-12.205l-11.347-8.121zM67.977 65.576L107.032 80.454M63.46 70.91L89.702 103.402M57.703 73.18L64.321 114.597M51.012 72.277L36.027 111.605M45.565 68.084L12.999 94.606M43.195 62.817L1.787 69.433M43.573 56.102L4.382 41.162M47.311 50.415L20.987 17.899M53.613 47.3L47.019 6.027M69.018 58.603L110.293 52.009" transform="translate(-645 -405) translate(563 307) translate(83 99) translate(18.742 5.737)"/>
                        <path stroke="#FFF" stroke-dasharray=".765 1.913" stroke-linecap="round" stroke-linejoin="round" stroke-width=".765" d="M57.128 47.12l-3.473 25.952L68.277 55.52l-11.15-8.399z" transform="translate(-645 -405) translate(563 307) translate(83 99) translate(18.742 5.737)"/>
                        <path stroke="#FFF" stroke-dasharray=".765 1.913" stroke-linecap="round" stroke-linejoin="round" stroke-width=".765" d="M69.073 61.453l-21.666 8.64 19.236-2.223 2.43-6.417z" transform="translate(-645 -405) translate(563 307) translate(83 99) translate(18.742 5.737)"/>
                        <path stroke="#FFF" stroke-linecap="round" stroke-linejoin="round" stroke-width=".765" d="M78.19 2.24c5.579 2.1 10.954 5.022 15.956 8.79 0 0 5.076 3.815 9.972 9.701" transform="translate(-645 -405) translate(563 307) translate(83 99) translate(18.742 5.737)"/>
                        <path stroke="#FFF" stroke-width=".765" d="M67.31 30.705c1.345.424 8.611 2.66 12.89 9.638" transform="translate(-645 -405) translate(563 307) translate(83 99) translate(18.742 5.737)"/>
                        <path stroke="#FFF" stroke-dasharray=".765 1.913" stroke-linecap="round" stroke-linejoin="round" stroke-width=".765" d="M62.659 41.346c-3.1-1.048-6.504-1.342-9.95-.704-10.78 1.995-17.9 12.35-15.906 23.13 1.995 10.78 12.351 17.9 23.13 15.906 10.78-1.995 17.901-12.351 15.906-23.13-.653-3.528-2.2-6.663-4.366-9.216M64.535 38.16c1.698.564 6.678 2.476 9.728 7.451" transform="translate(-645 -405) translate(563 307) translate(83 99) translate(18.742 5.737)"/>
                        <path stroke="#FFF" stroke-linecap="round" stroke-linejoin="round" stroke-width=".765" d="M18.586 3.36L18.531 10.851M15.773 7.085L21.344 7.126M17.021 8.621L20.097 5.59M17.043 5.567L20.075 8.644M1.823 21.904L1.788 26.663M.036 24.271L3.575 24.296M.829 25.247L2.783 23.32M.843 23.306L2.769 25.261M115.135 85.922L115.09 92.071M112.826 88.979L117.399 89.013M113.85 90.24L116.375 87.752M113.868 87.734L116.357 90.259M101.255 101.788L101.226 105.753M99.766 103.76L102.714 103.781M100.426 104.573L102.054 102.968M100.438 102.956L102.043 104.584" transform="translate(-645 -405) translate(563 307) translate(83 99) translate(18.742 5.737)"/>
                    </g>
                    <g>
                        <g transform="translate(-645 -405) translate(563 307) translate(83 99) translate(129.667 103.657)">
                            <mask id="r6wohajiqd" fill="#fff">
                                <use xlink:href="#jk0nbt5n9c"/>
                            </mask>
                            <path stroke="#FFF" stroke-linecap="round" stroke-linejoin="round" stroke-width="1.147" d="M12.89 2.887c4.578-.785 7.842-2.83 7.842-5.23 0-3.08-5.373-5.575-12-5.575s-12 2.496-12 5.575c0 3.078 5.373 5.574 12 5.574" mask="url(#r6wohajiqd)"/>
                        </g>
                        <g transform="translate(-645 -405) translate(563 307) translate(83 99) translate(129.667 103.657)">
                            <mask id="674o5hfp6f" fill="#fff">
                                <use xlink:href="#5mpmq260ze"/>
                            </mask>
                            <path stroke="#FFF" stroke-linecap="round" stroke-linejoin="round" stroke-width="1.147" d="M4.746 5.61c1.296.174 2.665.267 4.08.267 8.141 0 14.74-3.066 14.74-6.848s-6.599-6.847-14.74-6.847c-8.14 0-14.739 3.065-14.739 6.847" mask="url(#674o5hfp6f)"/>
                        </g>
                        <g transform="translate(-645 -405) translate(563 307) translate(83 99) translate(129.667 103.657)">
                            <mask id="53j3v9qsth" fill="#fff">
                                <use xlink:href="#yafdzop0ag"/>
                            </mask>
                            <path stroke="#FFF" stroke-linecap="round" stroke-linejoin="round" stroke-width="1.147" d="M-9.43.35c0 4.67 8.147 8.455 18.198 8.455s18.2-3.785 18.2-8.455-8.149-8.454-18.2-8.454C-1.282-8.104-9.43-4.32-9.43.35z" mask="url(#53j3v9qsth)"/>
                        </g>
                        <g transform="translate(-645 -405) translate(563 307) translate(83 99) translate(129.667 103.657)">
                            <mask id="weei34x13j" fill="#fff">
                                <use xlink:href="#de7zzgawgi"/>
                            </mask>
                            <path stroke="#FFF" stroke-linecap="round" stroke-linejoin="round" stroke-width="1.147" d="M8.827 11.735c9.706 0 17.574-3.655 17.574-8.164 0-4.51-7.868-8.165-17.574-8.165-9.706 0-17.574 3.655-17.574 8.165 0 3.916 5.937 7.19 13.858 7.98" mask="url(#weei34x13j)"/>
                        </g>
                        <g transform="translate(-645 -405) translate(563 307) translate(83 99) translate(129.667 103.657)">
                            <mask id="jmzyb73kxl" fill="#fff">
                                <use xlink:href="#7qugpi9jck"/>
                            </mask>
                            <path stroke="#FFF" stroke-linecap="round" stroke-linejoin="round" stroke-width="1.147" d="M26.678 6.255c0-4.488-7.831-8.126-17.491-8.126s-17.49 3.638-17.49 8.126c0 4.487 7.83 8.125 17.49 8.125.604 0 1.2-.014 1.789-.042" mask="url(#jmzyb73kxl)"/>
                        </g>
                    </g>
                    <g stroke="#FFF" stroke-linecap="round" stroke-linejoin="round">
                        <path stroke-width="1.147" d="M129.802 112.369c0 4.8 3.892 8.692 8.692 8.692 4.8 0 8.693-3.891 8.693-8.692s-3.892-8.693-8.693-8.693c-4.8 0-8.692 3.892-8.692 8.693z" transform="translate(-645 -405) translate(563 307) translate(83 99)"/>
                        <path stroke-width=".765" d="M9.487 14.292c1.438 4.197 6.005 6.434 10.202 4.997 4.197-1.437 6.434-6.004 4.997-10.201-1.437-4.197-6.004-6.435-10.2-4.998-4.198 1.437-6.436 6.004-4.999 10.202z" transform="translate(-645 -405) translate(563 307) translate(83 99)"/>
                        <path stroke-width=".765" d="M23.288 6.582c3.226-.48 5.51-.248 5.86.776.582 1.7-4.375 4.935-11.07 7.227-6.695 2.292-12.595 2.773-13.176 1.074-.35-1.024 1.312-2.607 4.155-4.205M1.489.299L1.46 4.263M0 2.27L2.948 2.291M.66 3.083L2.288 1.479M.672 1.467L2.276 3.095" transform="translate(-645 -405) translate(563 307) translate(83 99)"/>
                    </g>
                </g>
            </g>
        </g>
    </g>
</svg>