<svg xmlns="http://www.w3.org/2000/svg" version="1.1" xmlns:xlink="http://www.w3.org/1999/xlink" xmlns:svgjs="http://svgjs.dev/svgjs" width="1000" height="143" viewBox="0 0 1000 143"><g transform="matrix(1,0,0,1,-0.6060605604279203,0.49882928922241376)"><svg viewBox="0 0 396 57" data-background-color="#0b022d" preserveAspectRatio="xMidYMid meet" height="143" width="1000" xmlns="http://www.w3.org/2000/svg" xmlns:xlink="http://www.w3.org/1999/xlink"><g id="tight-bounds" transform="matrix(1,0,0,1,0.24000001807064564,-0.1988340523473937)"><svg viewBox="0 0 395.52 57.397668104694766" height="57.397668104694766" width="395.52"><g><svg viewBox="0 0 476.47794503623265 69.14624531855956" height="57.397668104694766" width="395.52"><g transform="matrix(1,0,0,1,0,9.556391357340722)"><svg viewBox="0 0 395.52 50.03346260387812" height="50.03346260387812" width="395.52"><g><svg viewBox="0 0 395.52 50.03346260387812" height="50.03346260387812" width="395.52" id="textblock"><g><svg viewBox="0 0 395.52 50.03346260387812" height="50.03346260387812" width="395.52"><g transform="matrix(1,0,0,1,0,0)"><svg width="395.52" viewBox="0.9000000357627869 -36.25 324.8800048828125 41.099998474121094" height="50.03346260387812" data-palette-color="#f7fff7"><path d="M15.85-30.25L8.85-11.4 22-11.4 15.85-30.25ZM29.7-0.45L29.7-0.45Q29.1 0.4 27.95 0.4 26.8 0.4 26.18-0.18 25.55-0.75 25.1-2.2L25.1-2.2 22.85-8.85 7.85-8.85 5.5-2.85Q4.8-1.15 4.15-0.38 3.5 0.4 2.5 0.4 1.5 0.4 0.9-1.05L0.9-1.05Q1.9-1.45 2.5-3L2.5-3 14.65-33.5Q14.2-34.7 13.55-35.35L13.55-35.35Q14.6-36 15.45-36L15.45-36Q16.9-36 17.7-33.6L17.7-33.6 28.2-2.5Q28.7-0.95 29.7-0.45ZM57.25-29.3L57.25-29.3Q57.25-28 56.6-27.28 55.95-26.55 54.85-26.55L54.85-26.55Q54.55-26.55 54.07-26.65 53.6-26.75 53.5-26.75L53.5-26.75Q53.65-27.55 53.65-28.15L53.65-28.15Q53.65-30.1 51.62-31.85 49.6-33.6 45.97-33.6 42.35-33.6 40.22-32.02 38.1-30.45 38.1-27.83 38.1-25.2 40.2-23.33 42.3-21.45 45.32-20.18 48.35-18.9 51.35-17.6 54.35-16.3 56.45-14.35 58.55-12.4 58.55-9.85L58.55-9.85Q58.55-5.5 54.77-2.55 51 0.4 45.77 0.4 40.55 0.4 37.17-2.05 33.8-4.5 33.8-8.25L33.8-8.25Q33.8-9.7 34.57-10.65 35.35-11.6 36.67-11.6 38-11.6 38.55-10.55L38.55-10.55Q37.4-9.5 37.4-7.9L37.4-7.9Q37.4-5.5 39.6-3.9 41.8-2.3 45.62-2.3 49.45-2.3 52.37-4.38 55.3-6.45 55.3-9.3L55.3-9.3Q55.3-11.05 53.77-12.5 52.25-13.95 50-14.9 47.75-15.85 45.07-17.05 42.4-18.25 40.15-19.43 37.9-20.6 36.37-22.63 34.85-24.65 34.85-27.2L34.85-27.2Q34.85-31.1 38.3-33.68 41.75-36.25 46.42-36.25 51.1-36.25 54.17-34.2 57.25-32.15 57.25-29.3ZM65.8-35.6L65.8-35.6 85.3-35.6Q87.55-35.6 87.55-33.8L87.55-33.8Q87.55-32.9 86.9-32.25L86.9-32.25Q85.9-32.9 84.25-32.9L84.25-32.9 76.55-32.9 76.55-2.55Q76.55-1.45 77.7-1.05L77.7-1.05Q76.95 0.4 75.65 0.4L75.65 0.4Q73.35 0.4 73.35-2.45L73.35-2.45 73.35-32.9 64.7-32.9Q62.5-32.9 62.5-34.7L62.5-34.7Q62.5-35.65 63.15-36.2L63.15-36.2Q64.25-35.6 65.8-35.6ZM96.79-32.9L96.79-17.65 104.19-17.65Q108.59-17.65 110.82-19.65 113.04-21.65 113.04-25.23 113.04-28.8 110.82-30.85 108.59-32.9 104.19-32.9L104.19-32.9 96.79-32.9ZM117.39-2L117.39-2Q117.54-2 117.69-2L117.69-2Q116.69 0.35 114.74 0.35L114.74 0.35Q113.59 0.35 112.84-0.28 112.09-0.9 110.69-2.75L110.69-2.75 101.79-15 96.84-15 96.84-2.55Q96.84-1.4 97.99-1.05L97.99-1.05Q97.19 0.4 95.84 0.4L95.84 0.4Q93.64 0.4 93.64-2.45L93.64-2.45 93.64-32.3Q93.64-33.45 92.49-33.9L92.49-33.9Q93.54-35.6 96.34-35.6L96.34-35.6 104.14-35.6Q109.94-35.6 113.24-32.88 116.54-30.15 116.54-25.5 116.54-20.85 113.74-18.18 110.94-15.5 105.94-15.05L105.94-15.05 114.89-3.3Q115.89-2 117.39-2ZM125.89-16.75Q126.54-9.5 130.24-5.85 133.94-2.2 139.12-2.2 144.29-2.2 147.59-6.8L147.59-6.8Q150.29-10.6 150.29-16.4L150.29-16.4Q150.29-17.5 150.19-18.75L150.19-18.75Q149.64-26.05 145.92-29.75 142.19-33.45 136.97-33.45 131.74-33.45 128.49-28.8L128.49-28.8Q125.79-25 125.79-19.3L125.79-19.3Q125.79-18.05 125.89-16.75L125.89-16.75ZM138.07-36Q144.84-36 149.09-31.15 153.34-26.3 153.34-17.93 153.34-9.55 149.07-4.58 144.79 0.4 138.04 0.4 131.29 0.4 126.99-4.5 122.69-9.4 122.69-17.78 122.69-26.15 126.99-31.08 131.29-36 138.07-36ZM186.64-32.8L186.64-32.8 179.24-32.8 179.24-16.5 186.64-16.5Q190.99-16.5 193.24-18.75 195.49-21 195.49-24.63 195.49-28.25 193.24-30.53 190.99-32.8 186.64-32.8ZM178.79-35.6L178.79-35.6 186.49-35.6Q192.19-35.6 195.54-32.58 198.89-29.55 198.89-24.68 198.89-19.8 195.54-16.78 192.19-13.75 186.49-13.75L186.49-13.75 179.29-13.75 179.29-2.55Q179.29-1.4 180.44-1.05L180.44-1.05Q179.64 0.4 178.29 0.4L178.29 0.4Q176.09 0.4 176.09-2.45L176.09-2.45 176.09-32.3Q176.09-33.45 174.94-33.9L174.94-33.9Q175.99-35.6 178.79-35.6ZM217.33-30.25L210.33-11.4 223.48-11.4 217.33-30.25ZM231.18-0.45L231.18-0.45Q230.58 0.4 229.43 0.4 228.28 0.4 227.66-0.18 227.03-0.75 226.58-2.2L226.58-2.2 224.33-8.85 209.33-8.85 206.98-2.85Q206.28-1.15 205.63-0.38 204.98 0.4 203.98 0.4 202.98 0.4 202.38-1.05L202.38-1.05Q203.38-1.45 203.98-3L203.98-3 216.13-33.5Q215.68-34.7 215.03-35.35L215.03-35.35Q216.08-36 216.93-36L216.93-36Q218.38-36 219.18-33.6L219.18-33.6 229.68-2.5Q230.18-0.95 231.18-0.45ZM261.83 4.85L261.83 4.85Q259.58 4.85 259.58 2.05L259.58 2.05 259.63-4.2Q258.03-2.4 255.43-1 252.83 0.4 249.83 0.4L249.83 0.4Q243.48 0.4 239.41-4.03 235.33-8.45 235.33-15.8L235.33-15.8Q235.33-24.8 240.48-30.4 245.63-36 253.53-36L253.53-36Q258.13-36 260.78-34.2 263.43-32.4 263.43-30L263.43-30Q263.43-29.05 262.83-28.45 262.23-27.85 261.43-27.85 260.63-27.85 260.08-28.05L260.08-28.05Q260.08-28.25 260.08-28.45L260.08-28.45Q260.08-30.3 258.26-31.68 256.43-33.05 252.73-33.05L252.73-33.05Q246.38-33.05 242.66-28.78 238.93-24.5 238.93-17.18 238.93-9.85 241.88-6.2 244.83-2.55 250.03-2.55L250.03-2.55Q252.83-2.55 255.11-3.68 257.38-4.8 259.73-7.15L259.73-7.15 259.83-16 256.48-16Q253.03-16 250.03-15.7L250.03-15.7Q249.53-16.2 249.53-16.8L249.53-16.8Q249.53-17.8 251.31-18.25 253.08-18.7 257.08-18.7 261.08-18.7 262.03-18.15 262.98-17.6 262.98-16.05L262.98-16.05 262.83 1.9Q262.83 3 263.98 3.4L263.98 3.4Q263.28 4.85 261.83 4.85ZM279.03-2.55L279.03-2.55 289.68-2.55Q292.33-2.55 293.33-4.65L293.33-4.65Q293.93-4.5 294.35-3.98 294.78-3.45 294.78-2.9L294.78-2.9Q294.78 0 289.48 0L289.48 0 279.13 0Q275.53 0 273.83-1.4 272.13-2.8 272.13-6L272.13-6 272.13-32.3Q272.13-33.45 270.98-33.9L270.98-33.9Q272.03-35.6 274.83-35.6L274.83-35.6 290.38-35.6Q294.78-35.6 294.78-33.4L294.78-33.4Q294.78-32 293.33-31.65L293.33-31.65Q292.23-33 289.68-33L289.68-33 275.33-33 275.33-19.55 286.88-19.55Q289.28-19.55 290.3-19.23 291.33-18.9 291.33-17.82 291.33-16.75 290.18-16.2L290.18-16.2Q289.08-16.95 286.53-16.95L286.53-16.95 275.33-16.95 275.33-5.9Q275.33-4.1 276.18-3.33 277.03-2.55 279.03-2.55ZM324.48-29.3L324.48-29.3Q324.48-28 323.83-27.28 323.18-26.55 322.08-26.55L322.08-26.55Q321.78-26.55 321.3-26.65 320.83-26.75 320.73-26.75L320.73-26.75Q320.88-27.55 320.88-28.15L320.88-28.15Q320.88-30.1 318.85-31.85 316.83-33.6 313.2-33.6 309.58-33.6 307.45-32.02 305.33-30.45 305.33-27.83 305.33-25.2 307.43-23.33 309.53-21.45 312.55-20.18 315.58-18.9 318.58-17.6 321.58-16.3 323.68-14.35 325.78-12.4 325.78-9.85L325.78-9.85Q325.78-5.5 322-2.55 318.23 0.4 313 0.4 307.78 0.4 304.4-2.05 301.03-4.5 301.03-8.25L301.03-8.25Q301.03-9.7 301.8-10.65 302.58-11.6 303.9-11.6 305.23-11.6 305.78-10.55L305.78-10.55Q304.63-9.5 304.63-7.9L304.63-7.9Q304.63-5.5 306.83-3.9 309.03-2.3 312.85-2.3 316.68-2.3 319.6-4.38 322.53-6.45 322.53-9.3L322.53-9.3Q322.53-11.05 321-12.5 319.48-13.95 317.23-14.9 314.98-15.85 312.3-17.05 309.63-18.25 307.38-19.43 305.13-20.6 303.6-22.63 302.08-24.65 302.08-27.2L302.08-27.2Q302.08-31.1 305.53-33.68 308.98-36.25 313.65-36.25 318.33-36.25 321.4-34.2 324.48-32.15 324.48-29.3Z" opacity="1" transform="matrix(1,0,0,1,0,0)" fill="#f7fff7" class="undefined-text-0" data-fill-palette-color="primary" id="text-0"></path></svg></g></svg></g></svg></g></svg></g><g transform="matrix(1,0,0,1,407.33169971767313,0)"><svg viewBox="0 0 69.14624531855956 69.14624531855956" height="69.14624531855956" width="69.14624531855956"><g data-palette-color="#ee7ddc"><rect width="18.899973720406283" height="69.14624531855956" fill="#ee7ddc" stroke="transparent" data-fill-palette-color="accent" x="0" fill-opacity="1"></rect><rect width="18.899973720406283" height="69.14624531855956" fill="#ee7ddc" stroke="transparent" data-fill-palette-color="accent" x="23.048748439519855" fill-opacity="0.75"></rect><rect width="18.899973720406283" height="69.14624531855956" fill="#ee7ddc" stroke="transparent" data-fill-palette-color="accent" x="46.09749687903971" fill-opacity="0.5"></rect></g></svg></g></svg></g><defs></defs></svg><rect width="395.52" height="57.397668104694766" fill="none" stroke="none" visibility="hidden"></rect></g></svg></g></svg>